<?xml version="1.0" encoding="UTF-8" standalone="no"?>
<!-- Generator: Adobe Illustrator 16.0.0, SVG Export Plug-In . SVG Version: 6.00 Build 0)  -->

<svg
   xmlns:dc="http://purl.org/dc/elements/1.1/"
   xmlns:cc="http://creativecommons.org/ns#"
   xmlns:rdf="http://www.w3.org/1999/02/22-rdf-syntax-ns#"
   xmlns:svg="http://www.w3.org/2000/svg"
   xmlns="http://www.w3.org/2000/svg"
   xmlns:xlink="http://www.w3.org/1999/xlink"
   xmlns:sodipodi="http://sodipodi.sourceforge.net/DTD/sodipodi-0.dtd"
   xmlns:inkscape="http://www.inkscape.org/namespaces/inkscape"
   version="1.1"
   id="Layer_1"
   x="0px"
   y="0px"
   width="501.00641"
   height="241.60185"
   viewBox="0 0 501.00643 241.60186"
   enable-background="new 0 0 722.569 346.291"
   xml:space="preserve"
   inkscape:version="0.91 r13725"
   sodipodi:docname="qgis.se-logo-2.svg"
   inkscape:export-filename="E:\Google Drive\QGIS_Graphics\Logo candidate 3.0 final files\qgis-logo_anita0.png"
   inkscape:export-xdpi="278"
   inkscape:export-ydpi="278"><metadata
     id="metadata46"><rdf:RDF><cc:Work
         rdf:about=""><dc:format>image/svg+xml</dc:format><dc:type
           rdf:resource="http://purl.org/dc/dcmitype/StillImage" /><dc:title /></cc:Work></rdf:RDF></metadata><defs
     id="defs44"><linearGradient
       inkscape:collect="always"
       xlink:href="#SVGID_5_"
       id="linearGradient4329"
       x1="721.1015"
       y1="248.36922"
       x2="717.75787"
       y2="167.98872"
       gradientUnits="userSpaceOnUse"
       gradientTransform="translate(-100.25588,2.3875393)" /><linearGradient
       inkscape:collect="always"
       xlink:href="#SVGID_5_"
       id="linearGradient4331"
       gradientUnits="userSpaceOnUse"
       x1="188.7529"
       y1="250.2354"
       x2="186.5125"
       y2="102.9362" /><linearGradient
       inkscape:collect="always"
       xlink:href="#SVGID_5_"
       id="linearGradient4440"
       x1="105.5037"
       y1="98.686951"
       x2="606.49799"
       y2="98.686951"
       gradientUnits="userSpaceOnUse" /></defs><sodipodi:namedview
     pagecolor="#ffffff"
     bordercolor="#666666"
     borderopacity="1"
     objecttolerance="10"
     gridtolerance="10"
     guidetolerance="10"
     inkscape:pageopacity="0"
     inkscape:pageshadow="2"
     inkscape:window-width="2560"
     inkscape:window-height="1355"
     id="namedview42"
     showgrid="false"
     inkscape:zoom="1.776993"
     inkscape:cx="272.67017"
     inkscape:cy="57.190155"
     inkscape:window-x="0"
     inkscape:window-y="1080"
     inkscape:window-maximized="1"
     inkscape:current-layer="Layer_1"
     inkscape:snap-page="false"
     fit-margin-top="0"
     fit-margin-left="0"
     fit-margin-right="0"
     fit-margin-bottom="0" /><linearGradient
     id="SVGID_1_"
     gradientUnits="userSpaceOnUse"
     x1="350.02249"
     y1="247.7832"
     x2="347.78201"
     y2="100.4837"><stop
       offset="0"
       style="stop-color:#589632"
       id="stop6" /><stop
       offset="1"
       style="stop-color:#93B023"
       id="stop8" /></linearGradient><linearGradient
     id="SVGID_2_"
     gradientUnits="userSpaceOnUse"
     x1="459.22171"
     y1="246.1226"
     x2="456.98129"
     y2="98.822403"><stop
       offset="0"
       style="stop-color:#589632"
       id="stop13" /><stop
       offset="1"
       style="stop-color:#93B023"
       id="stop15" /></linearGradient><linearGradient
     id="SVGID_3_"
     gradientUnits="userSpaceOnUse"
     x1="553.50677"
     y1="244.6875"
     x2="551.26642"
     y2="97.388199"><stop
       offset="0"
       style="stop-color:#589632"
       id="stop20" /><stop
       offset="1"
       style="stop-color:#93B023"
       id="stop22" /></linearGradient><linearGradient
     id="SVGID_4_"
     gradientUnits="userSpaceOnUse"
     x1="234.4702"
     y1="250.03419"
     x2="232.211"
     y2="101.4977"><stop
       offset="0"
       style="stop-color:#589632"
       id="stop27" /><stop
       offset="1"
       style="stop-color:#93B023"
       id="stop29" /></linearGradient><linearGradient
     id="SVGID_5_"
     gradientUnits="userSpaceOnUse"
     x1="188.7529"
     y1="250.2354"
     x2="186.5125"
     y2="102.9362"><stop
       offset="0"
       style="stop-color:#589632"
       id="stop36" /><stop
       offset="1"
       style="stop-color:#93B023"
       id="stop38" /></linearGradient><g
     id="g3513"
     transform="translate(-110.63499,-98.765)"><polygon
       id="polygon3"
       points="176,183.433 195,202.37 195,180 216.513,180 198.306,162 176,162 "
       style="fill:#ee7913" /><path
       id="path10"
       d="m 414.246,171.135 0,54.35 c -14.951,10.911 -37.782,18.386 -57.38,18.386 -42.833,0 -75.362,-31.113 -75.362,-72.129 0,-40.813 33.135,-71.725 77.182,-71.725 21.013,0 42.427,8.082 56.773,20.608 l -17.982,22.832 c -10.507,-9.698 -25.052,-15.76 -38.791,-15.76 -25.055,0 -44.451,19.194 -44.451,44.045 0,25.053 19.599,44.249 44.651,44.249 8.486,0 18.589,-3.031 27.681,-7.678 l 0,-37.177 27.679,0 z"
       style="fill:url(#SVGID_1_)"
       inkscape:connector-curvature="0" /><path
       id="path17"
       d="m 442.129,242.456 0,-141.43 31.922,0 0,141.43 -31.922,0 z"
       style="fill:url(#SVGID_2_)"
       inkscape:connector-curvature="0" /><path
       id="path24"
       d="m 610.831,114.967 -12.324,26.467 c -14.951,-8.89 -32.731,-14.547 -44.045,-14.547 -10.708,0 -17.981,3.839 -17.981,11.517 0,26.064 75.362,11.517 75.16,62.431 0,27.68 -24.045,42.631 -55.36,42.631 -23.236,0 -46.471,-8.89 -62.431,-22.427 l 12.728,-26.063 c 14.548,12.932 35.155,21.215 50.106,21.215 13.134,0 21.013,-4.849 21.013,-13.537 0,-26.669 -75.362,-11.112 -75.362,-61.219 0,-25.659 22.023,-41.823 54.755,-41.823 19.8,-10e-4 39.599,6.061 53.741,15.355 z"
       style="fill:url(#SVGID_3_)"
       inkscape:connector-curvature="0" /><polygon
       id="polygon31"
       points="240.782,248 264,248 264,226.946 225.617,189 204,189 204,211.34 "
       style="fill:url(#SVGID_4_)" /><polygon
       id="polygon33"
       points="195,202.37 204,211.34 204,189 225.617,189 216.513,180 195,180 "
       style="fill:#f0e64a" /><path
       id="path40"
       d="m 198.052,216.864 c -3.259,0.75 -6.648,1.157 -10.144,1.157 -25.005,0 -46.271,-20.562 -46.271,-47.222 0,-26.66 21.032,-46.769 46.271,-46.769 25.239,0 45.336,20.108 45.336,46.769 0,4.336 -0.54,8.508 -1.539,12.46 l 23.144,23.14 c 5.967,-10.455 9.305,-22.611 9.305,-35.778 0,-41.09 -32.791,-71.856 -76.714,-71.856 -43.722,0 -76.512,30.564 -76.512,71.856 0,41.494 32.791,72.666 76.512,72.666 11.287,0 21.835,-2.076 31.284,-5.854 l -20.672,-20.569 z"
       style="fill:url(#linearGradient4331)"
       inkscape:connector-curvature="0" /><path
       sodipodi:nodetypes="ccccccc"
       inkscape:connector-curvature="0"
       style="fill:#ffffff;fill-opacity:0.17254902"
       id="polygon4174"
       d="m 176,162 88,86 0,-21.05469 L 225.61719,189 l -9.10352,-9 -18.20703,-18 z" /></g><g
     style="font-style:normal;font-weight:normal;font-size:107.0795517px;line-height:125%;font-family:sans-serif;letter-spacing:0px;word-spacing:0px;fill:#5b9731;fill-opacity:1;stroke:none;stroke-width:1px;stroke-linecap:butt;stroke-linejoin:miter;stroke-opacity:1"
     id="text4430"><path
       d="m 56.467732,164.48157 0,16.52204 q -6.431047,-2.87567 -12.548385,-4.33965 -6.117337,-1.46398 -11.554971,-1.46398 -7.215321,0 -10.666127,1.98683 -3.450806,1.98682 -3.450806,6.16962 0,3.1371 2.300537,4.91478 2.352822,1.72541 8.47016,2.98025 l 8.57473,1.7254 q 13.018949,2.61424 18.508868,7.94731 5.489918,5.33306 5.489918,15.16263 0,12.91438 -7.685886,19.24086 -7.633601,6.27419 -23.371367,6.27419 -7.424461,0 -14.901207,-1.41169 -7.4767459,-1.4117 -14.95349193,-4.1828 l 0,-16.9926 q 7.47674603,3.97365 14.43064293,6.01276 7.006181,1.98683 13.489514,1.98683 6.587902,0 10.090993,-2.19597 3.50309,-2.19596 3.50309,-6.27419 0,-3.65994 -2.405107,-5.64677 -2.352822,-1.98683 -9.463573,-3.55538 l -7.790456,-1.7254 Q 10.822982,205.10696 5.3853484,199.61705 -1.15484e-7,194.12713 -1.15484e-7,184.82041 q 0,-11.65954 7.529031015484,-17.93374 7.5290311,-6.27419 21.6459641,-6.27419 6.431047,0 13.228089,0.99342 6.797042,0.94112 14.064648,2.87567 z"
       style="font-style:normal;font-variant:normal;font-weight:bold;font-stretch:normal;font-family:sans-serif;-inkscape-font-specification:'sans-serif Bold';fill:#5b9731;fill-opacity:1"
       id="path3707" /><path
       d="m 70.009533,162.02418 20.23427,0 20.704837,57.618 20.65255,-57.618 20.23427,0 -28.91357,78.06141 -23.998787,0 -28.91357,-78.06141 z"
       style="font-style:normal;font-variant:normal;font-weight:bold;font-stretch:normal;font-family:sans-serif;-inkscape-font-specification:'sans-serif Bold';fill:#5b9731;fill-opacity:1"
       id="path3709" /><path
       d="m 162.1356,162.02418 54.32405,0 0,15.21491 -34.19435,0 0,14.53521 32.15523,0 0,15.21492 -32.15523,0 0,17.88145 35.34461,0 0,15.21492 -55.47431,0 0,-78.06141 z"
       style="font-style:normal;font-variant:normal;font-weight:bold;font-stretch:normal;font-family:sans-serif;-inkscape-font-specification:'sans-serif Bold';fill:#5b9731;fill-opacity:1"
       id="path3711" /><path
       d="m 263.93437,196.6368 q 6.32648,0 9.04529,-2.35282 2.77111,-2.35282 2.77111,-7.73817 0,-5.33306 -2.77111,-7.6336 -2.71881,-2.30054 -9.04529,-2.30054 l -8.47016,0 0,20.02513 8.47016,0 z m -8.47016,13.9078 0,29.54099 -20.1297,0 0,-78.06141 30.74354,0 q 15.42406,0 22.58709,5.1762 7.21533,5.17621 7.21533,16.36519 0,7.73817 -3.76452,12.70524 -3.71223,4.96707 -11.24126,7.31989 4.13051,0.94113 7.37218,4.28737 3.29395,3.29395 6.64018,10.0387 l 10.92755,22.16882 -21.43682,0 -9.51586,-19.39772 q -2.87567,-5.85591 -5.85591,-7.99959 -2.92796,-2.14368 -7.84274,-2.14368 l -5.69906,0 z"
       style="font-style:normal;font-variant:normal;font-weight:bold;font-stretch:normal;font-family:sans-serif;-inkscape-font-specification:'sans-serif Bold';fill:#5b9731;fill-opacity:1"
       id="path3713" /><path
       d="m 317.73557,162.02418 20.1297,0 0,78.06141 -20.1297,0 0,-78.06141 z"
       style="font-style:normal;font-variant:normal;font-weight:bold;font-stretch:normal;font-family:sans-serif;-inkscape-font-specification:'sans-serif Bold';fill:#5b9731;fill-opacity:1"
       id="path3715" /><path
       d="m 427.84767,234.28196 q -7.52904,3.65994 -15.6332,5.48992 -8.10417,1.82997 -16.73118,1.82997 -19.50228,0 -30.9004,-10.87527 -11.39811,-10.92755 -11.39811,-29.59327 0,-18.87486 11.60725,-29.69785 11.60726,-10.82298 31.78924,-10.82298 7.79046,0 14.90121,1.46398 7.16304,1.46398 13.48951,4.33965 l 0,16.15605 q -6.53561,-3.71224 -13.01895,-5.54221 -6.43104,-1.82997 -12.91437,-1.82997 -12.02554,0 -18.56116,6.74476 -6.48333,6.69247 -6.48333,19.18857 0,12.39153 6.27419,19.13629 6.2742,6.74475 17.82917,6.74475 3.13709,0 5.80362,-0.36599 2.71882,-0.41828 4.8625,-1.25484 l 0,-15.16263 -12.28696,0 0,-13.48952 31.37097,0 0,37.54059 z"
       style="font-style:normal;font-variant:normal;font-weight:bold;font-stretch:normal;font-family:sans-serif;-inkscape-font-specification:'sans-serif Bold';fill:#5b9731;fill-opacity:1"
       id="path3717" /><path
       d="m 445.51996,162.02418 54.32405,0 0,15.21491 -34.19435,0 0,14.53521 32.15524,0 0,15.21492 -32.15524,0 0,17.88145 35.34462,0 0,15.21492 -55.47432,0 0,-78.06141 z"
       style="font-style:normal;font-variant:normal;font-weight:bold;font-stretch:normal;font-family:sans-serif;-inkscape-font-specification:'sans-serif Bold';fill:#5b9731;fill-opacity:1"
       id="path3719" /></g></svg>