<?xml version="1.0" encoding="UTF-8" standalone="no"?>
<!-- Generator: Adobe Illustrator 16.0.0, SVG Export Plug-In . SVG Version: 6.00 Build 0)  -->

<svg
   xmlns:dc="http://purl.org/dc/elements/1.1/"
   xmlns:cc="http://creativecommons.org/ns#"
   xmlns:rdf="http://www.w3.org/1999/02/22-rdf-syntax-ns#"
   xmlns:svg="http://www.w3.org/2000/svg"
   xmlns="http://www.w3.org/2000/svg"
   xmlns:xlink="http://www.w3.org/1999/xlink"
   xmlns:sodipodi="http://sodipodi.sourceforge.net/DTD/sodipodi-0.dtd"
   xmlns:inkscape="http://www.inkscape.org/namespaces/inkscape"
   version="1.1"
   id="Layer_1"
   x="0px"
   y="0px"
   width="369.27271"
   height="172.30074"
   viewBox="0 0 369.27272 172.30075"
   enable-background="new 0 0 722.569 346.291"
   xml:space="preserve"
   inkscape:version="0.91 r13725"
   sodipodi:docname="qgis.se-logo-9.svg"
   inkscape:export-filename="E:\Google Drive\QGIS_Graphics\Logo candidate 3.0 final files\qgis-logo_anita0.png"
   inkscape:export-xdpi="278"
   inkscape:export-ydpi="278"><metadata
     id="metadata46"><rdf:RDF><cc:Work
         rdf:about=""><dc:format>image/svg+xml</dc:format><dc:type
           rdf:resource="http://purl.org/dc/dcmitype/StillImage" /><dc:title /></cc:Work></rdf:RDF></metadata><defs
     id="defs44"><linearGradient
       inkscape:collect="always"
       xlink:href="#SVGID_5_"
       id="linearGradient4329"
       x1="721.1015"
       y1="248.36922"
       x2="717.75787"
       y2="167.98872"
       gradientUnits="userSpaceOnUse"
       gradientTransform="translate(-100.25588,2.3875393)" /><linearGradient
       inkscape:collect="always"
       xlink:href="#SVGID_5_"
       id="linearGradient4331"
       gradientUnits="userSpaceOnUse"
       x1="188.7529"
       y1="250.2354"
       x2="186.5125"
       y2="102.9362"
       gradientTransform="translate(-292.00491,-97.146709)" /><linearGradient
       inkscape:collect="always"
       xlink:href="#SVGID_5_"
       id="linearGradient4440"
       x1="105.5037"
       y1="98.686951"
       x2="606.49799"
       y2="98.686951"
       gradientUnits="userSpaceOnUse" /></defs><sodipodi:namedview
     pagecolor="#ffffff"
     bordercolor="#666666"
     borderopacity="1"
     objecttolerance="10"
     gridtolerance="10"
     guidetolerance="10"
     inkscape:pageopacity="0"
     inkscape:pageshadow="2"
     inkscape:window-width="2560"
     inkscape:window-height="1355"
     id="namedview42"
     showgrid="false"
     inkscape:zoom="2.5130476"
     inkscape:cx="167.97724"
     inkscape:cy="87.269165"
     inkscape:window-x="0"
     inkscape:window-y="1080"
     inkscape:window-maximized="1"
     inkscape:current-layer="Layer_1"
     inkscape:snap-page="false"
     fit-margin-top="0"
     fit-margin-left="0"
     fit-margin-right="0"
     fit-margin-bottom="0" /><linearGradient
     id="SVGID_1_"
     gradientUnits="userSpaceOnUse"
     x1="350.02249"
     y1="247.7832"
     x2="347.78201"
     y2="100.4837"
     gradientTransform="translate(-110.63499,-98.765)"><stop
       offset="0"
       style="stop-color:#589632"
       id="stop6" /><stop
       offset="1"
       style="stop-color:#93B023"
       id="stop8" /></linearGradient><linearGradient
     id="SVGID_2_"
     gradientUnits="userSpaceOnUse"
     x1="459.22171"
     y1="246.1226"
     x2="456.98129"
     y2="98.822403"
     gradientTransform="translate(-110.63499,-98.765)"><stop
       offset="0"
       style="stop-color:#589632"
       id="stop13" /><stop
       offset="1"
       style="stop-color:#93B023"
       id="stop15" /></linearGradient><linearGradient
     id="SVGID_3_"
     gradientUnits="userSpaceOnUse"
     x1="553.50677"
     y1="244.6875"
     x2="551.26642"
     y2="97.388199"
     gradientTransform="translate(-110.63499,-98.765)"><stop
       offset="0"
       style="stop-color:#589632"
       id="stop20" /><stop
       offset="1"
       style="stop-color:#93B023"
       id="stop22" /></linearGradient><linearGradient
     id="SVGID_4_"
     gradientUnits="userSpaceOnUse"
     x1="234.4702"
     y1="250.03419"
     x2="232.211"
     y2="101.4977"><stop
       offset="0"
       style="stop-color:#589632"
       id="stop27" /><stop
       offset="1"
       style="stop-color:#93B023"
       id="stop29" /></linearGradient><linearGradient
     id="SVGID_5_"
     gradientUnits="userSpaceOnUse"
     x1="188.7529"
     y1="250.2354"
     x2="186.5125"
     y2="102.9362"><stop
       offset="0"
       style="stop-color:#589632"
       id="stop36" /><stop
       offset="1"
       style="stop-color:#93B023"
       id="stop38" /></linearGradient><rect
     style="fill:#000000;fill-opacity:1"
     id="rect4317"
     width="369.27274"
     height="172.30075"
     x="-1.5258791e-05"
     y="0" /><rect
     style="fill:#ffffff;fill-opacity:1"
     id="rect5119"
     width="160.36307"
     height="157.97551"
     x="7.6332192"
     y="7.5709257" /><g
     transform="matrix(1.1991717,0,0,1.1991717,11.274982,8.7706966)"
     id="g3618"><polygon
       id="polygon3606"
       points="86.891,69.625 71.697,54.625 52.613,54.625 52.613,72.746 68.613,88.548 68.613,69.625 " /><polygon
       id="polygon3608"
       points="94.488,77.625 76.613,77.625 76.613,96.033 107.143,126.625 126.613,126.625 126.613,109.057 " /><path
       inkscape:connector-curvature="0"
       id="path3610"
       d="m 68.923,101.552 c -1.165,0.242 -1.769,0.157 -4.685,0.157 -20.866,0 -38.612,-17.158 -38.612,-39.406 0,-22.248 17.551,-39.027 38.612,-39.027 21.061,0 37.833,16.78 37.833,39.027 0,3.619 -0.451,7.099 -1.284,10.398 L 120.1,92.012 c 4.979,-8.726 7.765,-18.869 7.765,-29.857 C 127.865,27.866 100.502,2.192 63.849,2.192 27.363,2.191 0,27.696 0,62.154 c 0,34.625 27.363,60.638 63.848,60.638 9.417,0 16.069,-1.469 23.042,-3.761 L 68.923,101.552 Z" /></g><polygon
     style="fill:#ee7913"
     points="216.513,180 198.306,162 176,162 176,183.433 195,202.37 195,180 "
     id="polygon3"
     transform="translate(-292.00491,-97.146709)" /><polygon
     style="fill:url(#SVGID_4_)"
     points="225.617,189 204,189 204,211.34 240.782,248 264,248 264,226.946 "
     id="polygon31"
     transform="translate(-292.00491,-97.146709)" /><polygon
     style="fill:#f0e64a"
     points="225.617,189 216.513,180 195,180 195,202.37 204,211.34 204,189 "
     id="polygon33"
     transform="translate(-292.00491,-97.146709)" /><path
     inkscape:connector-curvature="0"
     style="fill:url(#linearGradient4331)"
     d="m -93.952915,119.71729 c -3.259,0.75 -6.647995,1.157 -10.143995,1.157 -25.005,0 -46.271,-20.562 -46.271,-47.221999 0,-26.66 21.032,-46.769 46.271,-46.769 25.238995,0 45.335995,20.108 45.335995,46.769 0,4.336 -0.54,8.508 -1.539,12.46 l 23.144,23.139999 c 5.967,-10.455001 9.305,-22.610999 9.305,-35.777999 0,-41.09 -32.791,-71.8560002 -76.713995,-71.8560002 -43.722,0 -76.512,30.5640002 -76.512,71.8560002 0,41.493999 32.791,72.665999 76.512,72.665999 11.286995,0 21.834995,-2.076 31.283995,-5.854 l -20.672,-20.569 z"
     id="path40" /><path
     d="m -116.00491,64.853291 87.999995,85.999999 0,-21.05469 -38.38281,-37.945311 -9.10352,-8.999998 -18.20703,-18 z"
     id="polygon4174"
     style="fill:#ffffff;fill-opacity:0.17254902"
     inkscape:connector-curvature="0"
     sodipodi:nodetypes="ccccccc" /><flowRoot
     xml:space="preserve"
     id="flowRoot3546"
     style="font-style:normal;font-weight:normal;font-size:40px;line-height:1000%;font-family:sans-serif;letter-spacing:0px;word-spacing:0px;fill:#000000;fill-opacity:1;stroke:none;stroke-width:1px;stroke-linecap:butt;stroke-linejoin:miter;stroke-opacity:1"
     transform="translate(-3.5709357,11.566372)"><flowRegion
       id="flowRegion3548"><rect
         id="rect3550"
         width="118.45854"
         height="130.839"
         x="221.72287"
         y="-6.7825737"
         style="line-height:1000%" /></flowRegion><flowPara
       id="flowPara3552" /><flowPara
       id="flowPara4295" /><flowPara
       id="flowPara4297" /><flowPara
       id="flowPara4299" /><flowPara
       id="flowPara4301" /><flowPara
       id="flowPara4303" /></flowRoot><g
     style="font-style:normal;font-weight:normal;font-size:53.10269928px;line-height:100%;font-family:sans-serif;letter-spacing:0px;word-spacing:0px;fill:#ffffff;fill-opacity:1;stroke:none;stroke-width:1px;stroke-linecap:butt;stroke-linejoin:miter;stroke-opacity:1"
     id="text3538"><path
       d="m 222.46813,29.738794 c 0,8.337124 5.09786,13.859804 12.31982,13.859804 3.55788,0 6.37233,-1.38067 8.23092,-3.823394 l 0,3.026854 c 0,3.557881 -2.65513,5.894399 -7.06266,5.894399 -3.07995,0 -6.26612,-1.062054 -8.86815,-2.867545 l -3.18616,6.213015 c 3.23927,2.177211 7.75299,3.770292 12.74465,3.770292 9.23987,0 15.50599,-5.150962 15.50599,-13.275675 l 0,-26.020322 -9.13367,0 0,3.504778 c -1.9117,-2.495827 -4.77924,-3.876497 -8.44333,-3.823395 -7.16886,0 -12.10741,5.416476 -12.10741,13.541189 z m 8.54953,0.265513 c 0,-4.14201 2.44273,-7.009556 6.05371,-7.009556 3.55788,0 5.9475,2.814443 5.9475,7.009556 0,4.088908 -2.38962,6.956454 -5.9475,6.956454 -3.61098,0 -6.05371,-2.867546 -6.05371,-6.956454 z"
       style="font-style:normal;font-variant:normal;font-weight:bold;font-stretch:normal;line-height:100%;font-family:Trueno;-inkscape-font-specification:'Trueno Bold';text-align:end;text-anchor:end;fill:#ffffff"
       id="path6116" /><path
       d="m 250.85069,53.953625 c 1.9648,1.221362 4.51373,1.858594 7.16887,1.858594 5.84129,0.0531 10.40813,-3.398573 10.40813,-9.823999 l 0,-29.471998 -9.18677,0 0,28.887868 c 0,2.177211 -1.11516,3.186162 -2.81444,3.133059 -1.06206,0 -2.17722,-0.371719 -3.23927,-1.008951 l -2.33652,6.425427 z m 7.753,-45.6152191 c 0,2.8144431 2.17721,4.8323461 5.20406,4.8323461 3.07996,0 5.20407,-2.017903 5.20407,-4.8323461 0,-2.8675458 -2.12411,-4.8854483 -5.20407,-4.8854483 -3.02685,0 -5.20406,2.0179025 -5.20406,4.8854483 z"
       style="font-style:normal;font-variant:normal;font-weight:bold;font-stretch:normal;line-height:100%;font-family:Trueno;-inkscape-font-specification:'Trueno Bold';text-align:end;text-anchor:end;fill:#ffffff"
       id="path6118" /><path
       d="m 273.65083,30.800848 c 0,8.815048 6.26612,14.656345 15.6653,14.656345 9.34608,0 15.61219,-5.841297 15.61219,-14.656345 0,-8.815048 -6.26611,-14.603243 -15.61219,-14.603243 -9.39918,0 -15.6653,5.788195 -15.6653,14.603243 z m 9.23987,0.106205 c 0,-4.407524 2.60204,-7.434378 6.42543,-7.434378 3.77029,0 6.37232,3.026854 6.37232,7.434378 0,4.460627 -2.60203,7.434378 -6.37232,7.434378 -3.82339,0 -6.42543,-2.973751 -6.42543,-7.434378 z"
       style="font-style:normal;font-variant:normal;font-weight:bold;font-stretch:normal;line-height:100%;font-family:Trueno;-inkscape-font-specification:'Trueno Bold';text-align:end;text-anchor:end;fill:#ffffff"
       id="path6120" /><path
       d="m 309.85194,45.138577 9.18677,0 0,-14.709448 c 0.47792,-4.035805 3.9827,-6.531632 9.29297,-6.053708 l 0,-8.284021 c -4.08891,0.0531 -7.32817,1.911697 -9.29297,5.257167 l 0,-4.832345 -9.18677,0 0,28.622355 z"
       style="font-style:normal;font-variant:normal;font-weight:bold;font-stretch:normal;line-height:100%;font-family:Trueno;-inkscape-font-specification:'Trueno Bold';text-align:end;text-anchor:end;fill:#ffffff"
       id="path6122" /><path
       d="m 330.22927,30.694642 c 0,8.868151 5.31027,14.815653 13.38188,14.815653 3.66409,0 6.58474,-1.486875 8.60264,-4.14201 l 0,3.770292 9.18677,0 0,-39.4022034 -9.18677,0 0,14.5501394 c -2.0179,-2.655135 -5.04475,-4.14201 -8.81505,-4.14201 -7.9123,0 -13.16947,5.788194 -13.16947,14.550139 z m 9.18677,0.212411 c 0.0531,-4.407524 2.60203,-7.434378 6.42543,-7.434378 3.82339,0 6.37232,3.026854 6.37232,7.434378 0,4.407524 -2.54893,7.487481 -6.37232,7.487481 -3.8234,0 -6.37233,-3.079957 -6.42543,-7.487481 z"
       style="font-style:normal;font-variant:normal;font-weight:bold;font-stretch:normal;line-height:100%;font-family:Trueno;-inkscape-font-specification:'Trueno Bold';text-align:end;text-anchor:end;fill:#ffffff"
       id="path6124" /><path
       d="m 245.54789,98.241276 9.13366,0 0,-14.178421 c 0,-3.876497 2.17721,-6.69094 5.68199,-6.797145 3.02686,0 4.88545,2.071005 4.88545,5.469578 l 0,15.505988 9.18677,0 0,-14.178421 c 0,-3.876497 2.1241,-6.69094 5.57578,-6.797145 3.02685,0 4.93855,2.071005 4.93855,5.469578 l 0,15.505988 9.13367,0 0,-18.054918 c 0,-6.69094 -4.03581,-10.992259 -10.30193,-10.992259 -4.72614,0.0531 -8.23092,2.230314 -10.08951,6.47853 -1.43377,-4.035806 -4.88545,-6.47853 -9.55849,-6.47853 -4.19511,0.0531 -7.48748,1.752389 -9.45228,5.150962 l 0,-4.72614 -9.13366,0 0,28.622355 z"
       style="font-style:normal;font-variant:normal;font-weight:bold;font-stretch:normal;line-height:100%;font-family:Trueno;-inkscape-font-specification:'Trueno Bold';text-align:end;text-anchor:end;fill:#ffffff"
       id="path6126" /><path
       d="m 298.23157,84.009752 c 0,8.708843 5.8413,14.55014 15.18738,14.55014 5.25716,0 9.55848,-1.858594 12.47913,-5.044756 l -4.83235,-4.726141 c -1.91169,1.911697 -4.35442,2.920649 -6.85024,2.920649 -3.39858,0 -5.8413,-1.911697 -6.74405,-5.31027 l 20.12593,0 c 0.63723,-10.461232 -4.35442,-17.099069 -14.44394,-17.099069 -8.86815,0 -14.92186,5.841297 -14.92186,14.709447 z m 9.08057,-2.548929 c 0.58413,-3.451676 2.76134,-5.788194 5.9475,-5.788194 3.29237,0 5.52268,2.283416 5.52268,5.788194 l -11.47018,0 z"
       style="font-style:normal;font-variant:normal;font-weight:bold;font-stretch:normal;line-height:100%;font-family:Trueno;-inkscape-font-specification:'Trueno Bold';text-align:end;text-anchor:end;fill:#ffffff"
       id="path6128" /><path
       d="m 330.22927,83.797342 c 0,8.86815 5.31027,14.815653 13.38188,14.815653 3.66408,0 6.58473,-1.486876 8.60264,-4.142011 l 0,3.770292 9.18676,0 0,-39.402203 -9.18676,0 0,14.55014 c -2.01791,-2.655135 -5.04476,-4.142011 -8.81505,-4.142011 -7.9123,0 -13.16947,5.788194 -13.16947,14.55014 z m 9.18676,0.21241 c 0.0531,-4.407524 2.60204,-7.434378 6.42543,-7.434378 3.8234,0 6.37233,3.026854 6.37233,7.434378 0,4.407524 -2.54893,7.487481 -6.37233,7.487481 -3.82339,0 -6.37232,-3.079957 -6.42543,-7.487481 z"
       style="font-style:normal;font-variant:normal;font-weight:bold;font-stretch:normal;line-height:100%;font-family:Trueno;-inkscape-font-specification:'Trueno Bold';text-align:end;text-anchor:end;fill:#ffffff"
       id="path6130" /></g><g
     transform="matrix(0.37564322,0,0,0.37564322,134.84666,73.040001)"
     id="g4242"
     style="fill:#ffffff"><polygon
       style="fill:#ffffff"
       points="198.306,162 176,162 176,183.433 195,202.37 195,180 216.513,180 "
       id="polygon4244" /><path
       style="fill:#ffffff"
       inkscape:connector-curvature="0"
       d="m 414.246,171.135 0,54.35 c -14.951,10.911 -37.782,18.386 -57.38,18.386 -42.833,0 -75.362,-31.113 -75.362,-72.129 0,-40.813 33.135,-71.725 77.182,-71.725 21.013,0 42.427,8.082 56.773,20.608 l -17.982,22.832 c -10.507,-9.698 -25.052,-15.76 -38.791,-15.76 -25.055,0 -44.451,19.194 -44.451,44.045 0,25.053 19.599,44.249 44.651,44.249 8.486,0 18.589,-3.031 27.681,-7.678 l 0,-37.177 27.679,0 z"
       id="path4246" /><path
       style="fill:#ffffff"
       inkscape:connector-curvature="0"
       d="m 442.129,242.456 0,-141.43 31.922,0 0,141.43 -31.922,0 z"
       id="path4248" /><path
       style="fill:#ffffff"
       inkscape:connector-curvature="0"
       d="m 610.831,114.967 -12.324,26.467 c -14.951,-8.89 -32.731,-14.547 -44.045,-14.547 -10.708,0 -17.981,3.839 -17.981,11.517 0,26.064 75.362,11.517 75.16,62.431 0,27.68 -24.045,42.631 -55.36,42.631 -23.236,0 -46.471,-8.89 -62.431,-22.427 l 12.728,-26.063 c 14.548,12.932 35.155,21.215 50.106,21.215 13.134,0 21.013,-4.849 21.013,-13.537 0,-26.669 -75.362,-11.112 -75.362,-61.219 0,-25.659 22.023,-41.823 54.755,-41.823 19.8,-10e-4 39.599,6.061 53.741,15.355 z"
       id="path4250" /><polygon
       style="fill:#ffffff"
       points="204,189 204,211.34 240.782,248 264,248 264,226.946 225.617,189 "
       id="polygon4252" /><path
       style="fill:#ffffff"
       inkscape:connector-curvature="0"
       d="m 198.052,216.864 c -3.259,0.75 -6.648,1.157 -10.144,1.157 -25.005,0 -46.271,-20.562 -46.271,-47.222 0,-26.66 21.032,-46.769 46.271,-46.769 25.239,0 45.336,20.108 45.336,46.769 0,4.336 -0.54,8.508 -1.539,12.46 l 23.144,23.14 c 5.967,-10.455 9.305,-22.611 9.305,-35.778 0,-41.09 -32.791,-71.856 -76.714,-71.856 -43.722,0 -76.512,30.564 -76.512,71.856 0,41.494 32.791,72.666 76.512,72.666 11.287,0 21.835,-2.076 31.284,-5.854 l -20.672,-20.569 z"
       id="path4254" /></g><text
     xml:space="preserve"
     style="font-style:normal;font-weight:normal;font-size:40px;line-height:1000%;font-family:sans-serif;letter-spacing:0px;word-spacing:0px;fill:#000000;fill-opacity:1;stroke:none;stroke-width:1px;stroke-linecap:butt;stroke-linejoin:miter;stroke-opacity:1"
     x="304.80917"
     y="98.684937"
     id="text5208"
     sodipodi:linespacing="1000%"><tspan
       sodipodi:role="line"
       id="tspan5210"
       x="304.80917"
       y="98.684937" /></text>
</svg>