<?xml version="1.0" encoding="UTF-8" standalone="no"?>
<!-- Generator: Adobe Illustrator 16.0.0, SVG Export Plug-In . SVG Version: 6.00 Build 0)  -->

<svg
   xmlns:dc="http://purl.org/dc/elements/1.1/"
   xmlns:cc="http://creativecommons.org/ns#"
   xmlns:rdf="http://www.w3.org/1999/02/22-rdf-syntax-ns#"
   xmlns:svg="http://www.w3.org/2000/svg"
   xmlns="http://www.w3.org/2000/svg"
   xmlns:xlink="http://www.w3.org/1999/xlink"
   xmlns:sodipodi="http://sodipodi.sourceforge.net/DTD/sodipodi-0.dtd"
   xmlns:inkscape="http://www.inkscape.org/namespaces/inkscape"
   version="1.1"
   id="Layer_1"
   x="0px"
   y="0px"
   width="501.00638"
   height="183.42639"
   viewBox="0 0 501.0064 183.4264"
   enable-background="new 0 0 722.569 346.291"
   xml:space="preserve"
   inkscape:version="0.91 r13725"
   sodipodi:docname="qgis.se-logo-3.svg"
   inkscape:export-filename="E:\Google Drive\QGIS_Graphics\Logo candidate 3.0 final files\qgis-logo_anita0.png"
   inkscape:export-xdpi="278"
   inkscape:export-ydpi="278"><metadata
     id="metadata46"><rdf:RDF><cc:Work
         rdf:about=""><dc:format>image/svg+xml</dc:format><dc:type
           rdf:resource="http://purl.org/dc/dcmitype/StillImage" /><dc:title></dc:title></cc:Work></rdf:RDF></metadata><defs
     id="defs44"><linearGradient
       inkscape:collect="always"
       xlink:href="#SVGID_5_"
       id="linearGradient4329"
       x1="721.1015"
       y1="248.36922"
       x2="717.75787"
       y2="167.98872"
       gradientUnits="userSpaceOnUse"
       gradientTransform="translate(-100.25588,2.3875393)" /><linearGradient
       inkscape:collect="always"
       xlink:href="#SVGID_5_"
       id="linearGradient4331"
       gradientUnits="userSpaceOnUse"
       x1="188.7529"
       y1="250.2354"
       x2="186.5125"
       y2="102.9362"
       gradientTransform="translate(-110.63499,-98.765)" /><linearGradient
       inkscape:collect="always"
       xlink:href="#SVGID_5_"
       id="linearGradient4440"
       x1="105.5037"
       y1="98.686951"
       x2="606.49799"
       y2="98.686951"
       gradientUnits="userSpaceOnUse" /></defs><sodipodi:namedview
     pagecolor="#ffffff"
     bordercolor="#666666"
     borderopacity="1"
     objecttolerance="10"
     gridtolerance="10"
     guidetolerance="10"
     inkscape:pageopacity="0"
     inkscape:pageshadow="2"
     inkscape:window-width="2560"
     inkscape:window-height="1355"
     id="namedview42"
     showgrid="false"
     inkscape:zoom="3.553986"
     inkscape:cx="237.16627"
     inkscape:cy="97.164527"
     inkscape:window-x="0"
     inkscape:window-y="1080"
     inkscape:window-maximized="1"
     inkscape:current-layer="Layer_1"
     inkscape:snap-page="false"
     fit-margin-top="0"
     fit-margin-left="0"
     fit-margin-right="0"
     fit-margin-bottom="0" /><linearGradient
     id="SVGID_1_"
     gradientUnits="userSpaceOnUse"
     x1="350.02249"
     y1="247.7832"
     x2="347.78201"
     y2="100.4837"
     gradientTransform="translate(-110.63499,-98.765)"><stop
       offset="0"
       style="stop-color:#589632"
       id="stop6" /><stop
       offset="1"
       style="stop-color:#93B023"
       id="stop8" /></linearGradient><linearGradient
     id="SVGID_2_"
     gradientUnits="userSpaceOnUse"
     x1="459.22171"
     y1="246.1226"
     x2="456.98129"
     y2="98.822403"
     gradientTransform="translate(-110.63499,-98.765)"><stop
       offset="0"
       style="stop-color:#589632"
       id="stop13" /><stop
       offset="1"
       style="stop-color:#93B023"
       id="stop15" /></linearGradient><linearGradient
     id="SVGID_3_"
     gradientUnits="userSpaceOnUse"
     x1="553.50677"
     y1="244.6875"
     x2="551.26642"
     y2="97.388199"
     gradientTransform="translate(-110.63499,-98.765)"><stop
       offset="0"
       style="stop-color:#589632"
       id="stop20" /><stop
       offset="1"
       style="stop-color:#93B023"
       id="stop22" /></linearGradient><linearGradient
     id="SVGID_4_"
     gradientUnits="userSpaceOnUse"
     x1="234.4702"
     y1="250.03419"
     x2="232.211"
     y2="101.4977"><stop
       offset="0"
       style="stop-color:#589632"
       id="stop27" /><stop
       offset="1"
       style="stop-color:#93B023"
       id="stop29" /></linearGradient><linearGradient
     id="SVGID_5_"
     gradientUnits="userSpaceOnUse"
     x1="188.7529"
     y1="250.2354"
     x2="186.5125"
     y2="102.9362"><stop
       offset="0"
       style="stop-color:#589632"
       id="stop36" /><stop
       offset="1"
       style="stop-color:#93B023"
       id="stop38" /></linearGradient><polygon
     style="fill:#ee7913"
     points="176,162 176,183.433 195,202.37 195,180 216.513,180 198.306,162 "
     id="polygon3"
     transform="translate(-110.63499,-98.765)" /><path
     inkscape:connector-curvature="0"
     style="fill:url(#SVGID_1_)"
     d="m 303.61101,72.37 0,54.35 c -14.951,10.911 -37.782,18.386 -57.38,18.386 -42.833,0 -75.362,-31.113 -75.362,-72.129 0,-40.813 33.135,-71.725 77.182,-71.725 21.013,0 42.427,8.082 56.773,20.608 l -17.982,22.832 c -10.507,-9.698 -25.052,-15.76 -38.791,-15.76 -25.055,0 -44.451,19.194 -44.451,44.045 0,25.053 19.599,44.249 44.651,44.249 8.486,0 18.589,-3.031 27.681,-7.678 l 0,-37.177 27.679,0 z"
     id="path10" /><path
     inkscape:connector-curvature="0"
     style="fill:url(#SVGID_2_)"
     d="m 331.49401,143.691 0,-141.43 31.922,0 0,141.43 -31.922,0 z"
     id="path17" /><path
     inkscape:connector-curvature="0"
     style="fill:url(#SVGID_3_)"
     d="m 500.19601,16.202 -12.324,26.467 c -14.951,-8.89 -32.731,-14.547 -44.045,-14.547 -10.708,0 -17.981,3.839 -17.981,11.517 0,26.064 75.362,11.517 75.16,62.431 0,27.68 -24.045,42.631 -55.36,42.631 -23.236,0 -46.471,-8.89 -62.431,-22.427 l 12.728,-26.063 c 14.548,12.932 35.155,21.215 50.106,21.215 13.134,0 21.013,-4.849 21.013,-13.537 0,-26.669 -75.362,-11.112 -75.362,-61.219 0,-25.659 22.023,-41.823 54.755,-41.823 19.8,-0.001 39.599,6.061 53.741,15.355 z"
     id="path24" /><polygon
     style="fill:url(#SVGID_4_)"
     points="204,211.34 240.782,248 264,248 264,226.946 225.617,189 204,189 "
     id="polygon31"
     transform="translate(-110.63499,-98.765)" /><polygon
     style="fill:#f0e64a"
     points="195,180 195,202.37 204,211.34 204,189 225.617,189 216.513,180 "
     id="polygon33"
     transform="translate(-110.63499,-98.765)" /><path
     inkscape:connector-curvature="0"
     style="fill:url(#linearGradient4331)"
     d="m 87.41701,118.099 c -3.259,0.75 -6.648,1.157 -10.144,1.157 -25.005,0 -46.271,-20.562 -46.271,-47.222 0,-26.66 21.032,-46.769 46.271,-46.769 25.239,0 45.336,20.108 45.336,46.769 0,4.336 -0.54,8.508 -1.539,12.46 l 23.144,23.14 c 5.967,-10.455 9.305,-22.611 9.305,-35.778 0,-41.09 -32.791,-71.856 -76.714,-71.856 -43.722,0 -76.512,30.564 -76.512,71.856 0,41.494 32.791,72.666 76.512,72.666 11.287,0 21.835,-2.076 31.284,-5.854 l -20.672,-20.569 z"
     id="path40" /><path
     d="m 65.36501,63.235 88,86 0,-21.05469 -38.38281,-37.94531 -9.10352,-9 -18.20703,-18 z"
     id="polygon4174"
     style="fill:#ffffff;fill-opacity:0.17254902"
     inkscape:connector-curvature="0"
     sodipodi:nodetypes="ccccccc" /><text
     xml:space="preserve"
     style="font-style:normal;font-weight:normal;font-size:32.13090897px;line-height:125%;font-family:sans-serif;letter-spacing:0px;word-spacing:0px;fill:#5b9731;fill-opacity:1;stroke:none;stroke-width:1px;stroke-linecap:butt;stroke-linejoin:miter;stroke-opacity:1"
     x="-1.6180451"
     y="184.73813"
     id="text4430"
     sodipodi:linespacing="125%"
     transform="scale(1.0118268,0.98831143)"><tspan
       sodipodi:role="line"
       id="tspan4432"
       x="-1.6180451"
       y="184.73813"
       style="font-style:normal;font-variant:normal;font-weight:bold;font-stretch:normal;font-family:sans-serif;-inkscape-font-specification:'sans-serif Bold';fill:#5b9731;fill-opacity:1">SWEDEN</tspan></text>
</svg>