<?xml version="1.0" encoding="UTF-8" standalone="no"?>
<svg
   xmlns:dc="http://purl.org/dc/elements/1.1/"
   xmlns:cc="http://creativecommons.org/ns#"
   xmlns:rdf="http://www.w3.org/1999/02/22-rdf-syntax-ns#"
   xmlns:svg="http://www.w3.org/2000/svg"
   xmlns="http://www.w3.org/2000/svg"
   xmlns:xlink="http://www.w3.org/1999/xlink"
   xml:space="preserve"
   enable-background="new 0 0 722.569 346.291"
   viewBox="0 0 153.22599 149.26838"
   height="149.26837"
   width="153.22598"
   y="0px"
   x="0px"
   id="Layer_1"
   version="1.1"><metadata
     id="metadata46"><rdf:RDF><cc:Work
         rdf:about=""><dc:format>image/svg+xml</dc:format><dc:type
           rdf:resource="http://purl.org/dc/dcmitype/StillImage" /><dc:title></dc:title></cc:Work></rdf:RDF></metadata><defs
     id="defs44"><linearGradient
       gradientTransform="translate(-100.25588,2.3875393)"
       gradientUnits="userSpaceOnUse"
       y2="167.98872"
       x2="717.75787"
       y1="248.36922"
       x1="721.1015"
       id="linearGradient4329"
       xlink:href="#SVGID_5_" /><linearGradient
       gradientTransform="translate(-110.92802,-98.765)"
       y2="102.9362"
       x2="186.5125"
       y1="250.2354"
       x1="188.7529"
       gradientUnits="userSpaceOnUse"
       id="linearGradient4331"
       xlink:href="#SVGID_5_" /><linearGradient
       gradientUnits="userSpaceOnUse"
       y2="98.686951"
       x2="606.49799"
       y1="98.686951"
       x1="105.5037"
       id="linearGradient4440"
       xlink:href="#SVGID_5_" /></defs><linearGradient
     gradientTransform="translate(-110.63499,-98.765)"
     y2="100.4837"
     x2="347.78201"
     y1="247.7832"
     x1="350.02249"
     gradientUnits="userSpaceOnUse"
     id="SVGID_1_"><stop
       id="stop6"
       style="stop-color:#589632"
       offset="0" /><stop
       id="stop8"
       style="stop-color:#93B023"
       offset="1" /></linearGradient><linearGradient
     gradientTransform="translate(-110.63499,-98.765)"
     y2="98.822403"
     x2="456.98129"
     y1="246.1226"
     x1="459.22171"
     gradientUnits="userSpaceOnUse"
     id="SVGID_2_"><stop
       id="stop13"
       style="stop-color:#589632"
       offset="0" /><stop
       id="stop15"
       style="stop-color:#93B023"
       offset="1" /></linearGradient><linearGradient
     gradientTransform="translate(-110.63499,-98.765)"
     y2="97.388199"
     x2="551.26642"
     y1="244.6875"
     x1="553.50677"
     gradientUnits="userSpaceOnUse"
     id="SVGID_3_"><stop
       id="stop20"
       style="stop-color:#589632"
       offset="0" /><stop
       id="stop22"
       style="stop-color:#93B023"
       offset="1" /></linearGradient><linearGradient
     y2="101.4977"
     x2="232.211"
     y1="250.03419"
     x1="234.4702"
     gradientUnits="userSpaceOnUse"
     id="SVGID_4_"><stop
       id="stop27"
       style="stop-color:#589632"
       offset="0" /><stop
       id="stop29"
       style="stop-color:#93B023"
       offset="1" /></linearGradient><linearGradient
     y2="102.9362"
     x2="186.5125"
     y1="250.2354"
     x1="188.7529"
     gradientUnits="userSpaceOnUse"
     id="SVGID_5_"><stop
       id="stop36"
       style="stop-color:#589632"
       offset="0" /><stop
       id="stop38"
       style="stop-color:#93B023"
       offset="1" /></linearGradient><flowRoot
     transform="translate(-14.293042,0)"
     style="font-style:normal;font-weight:normal;font-size:40px;line-height:1000%;font-family:sans-serif;letter-spacing:0px;word-spacing:0px;fill:#000000;fill-opacity:1;stroke:none;stroke-width:1px;stroke-linecap:butt;stroke-linejoin:miter;stroke-opacity:1"
     id="flowRoot3546"
     xml:space="preserve"><flowRegion
       id="flowRegion3548"><rect
         style="line-height:1000%"
         y="-6.7825737"
         x="221.72287"
         height="130.839"
         width="118.45854"
         id="rect3550" /></flowRegion><flowPara
       id="flowPara3552" /><flowPara
       id="flowPara4295" /><flowPara
       id="flowPara4297" /><flowPara
       id="flowPara4299" /><flowPara
       id="flowPara4301" /><flowPara
       id="flowPara4303" /></flowRoot><text
     id="text5208"
     y="87.118561"
     x="294.08707"
     style="font-style:normal;font-weight:normal;font-size:40px;line-height:1000%;font-family:sans-serif;letter-spacing:0px;word-spacing:0px;fill:#000000;fill-opacity:1;stroke:none;stroke-width:1px;stroke-linecap:butt;stroke-linejoin:miter;stroke-opacity:1"
     xml:space="preserve"><tspan
       y="87.118561"
       x="294.08707"
       id="tspan5210" /></text>
<polygon
     transform="translate(-110.92802,-98.765)"
     id="polygon3"
     points="195,202.37 195,180 216.513,180 198.306,162 176,162 176,183.433 "
     style="fill:#0000ff" /><polygon
     transform="translate(-110.92802,-98.765)"
     id="polygon31"
     points="264,248 264,226.946 225.617,189 204,189 204,211.34 240.782,248 "
     style="fill:#0000ff" /><polygon
     transform="translate(-110.92802,-98.765)"
     id="polygon33"
     points="204,211.34 204,189 225.617,189 216.513,180 195,180 195,202.37 "
     style="fill:#f5f500;fill-opacity:1" /><path
     id="path40"
     d="m 87.123984,118.099 c -3.259,0.75 -6.648,1.157 -10.144,1.157 -25.005,0 -46.271,-20.562002 -46.271,-47.222 0,-26.66 21.032,-46.769 46.271,-46.769 25.238996,0 45.335996,20.108 45.335996,46.769 0,4.336 -0.54,8.508 -1.539,12.46 l 23.144,23.14 c 5.967,-10.455002 9.305,-22.611 9.305,-35.778 C 153.22598,30.766 120.43498,0 76.511984,0 32.789984,0 -1.525879e-5,30.564 -1.525879e-5,71.856 c 0,41.494 32.79099925879,72.666 76.51199925879,72.666 11.287,0 21.835,-2.076 31.283996,-5.854 L 87.123984,118.099 Z"
     style="fill:url(#linearGradient4331)" /><path
     id="path4232"
     d="m 65.074825,63.209429 0.0085,5.244433 82.467505,80.779328 5.52197,0.0352 0,-6.04954 -82.487806,-79.989184 z"
     style="fill:#f5f500;fill-opacity:1;fill-rule:evenodd;stroke:none;stroke-width:1px;stroke-linecap:butt;stroke-linejoin:miter;stroke-opacity:1" /><path
     style="fill:#ffffff;fill-opacity:0.29065743"
     id="polygon4174"
     d="m 65.071984,63.235 87.999996,86 0,-21.05469 -38.38281,-37.945312 -9.10352,-8.999998 -18.207026,-18 z" /></svg>