<?xml version="1.0" encoding="UTF-8" standalone="no"?>
<!-- Generator: Adobe Illustrator 16.0.0, SVG Export Plug-In . SVG Version: 6.00 Build 0)  -->

<svg
   xmlns:dc="http://purl.org/dc/elements/1.1/"
   xmlns:cc="http://creativecommons.org/ns#"
   xmlns:rdf="http://www.w3.org/1999/02/22-rdf-syntax-ns#"
   xmlns:svg="http://www.w3.org/2000/svg"
   xmlns="http://www.w3.org/2000/svg"
   xmlns:xlink="http://www.w3.org/1999/xlink"
   xmlns:sodipodi="http://sodipodi.sourceforge.net/DTD/sodipodi-0.dtd"
   xmlns:inkscape="http://www.inkscape.org/namespaces/inkscape"
   version="1.1"
   id="Layer_1"
   x="0px"
   y="0px"
   width="501.00638"
   height="183.42639"
   viewBox="0 0 501.0064 183.4264"
   enable-background="new 0 0 722.569 346.291"
   xml:space="preserve"
   inkscape:version="0.91 r13725"
   sodipodi:docname="qgis.se-logo-5.svg"
   inkscape:export-filename="E:\Google Drive\QGIS_Graphics\Logo candidate 3.0 final files\qgis-logo_anita0.png"
   inkscape:export-xdpi="278"
   inkscape:export-ydpi="278"><metadata
     id="metadata46"><rdf:RDF><cc:Work
         rdf:about=""><dc:format>image/svg+xml</dc:format><dc:type
           rdf:resource="http://purl.org/dc/dcmitype/StillImage" /><dc:title /></cc:Work></rdf:RDF></metadata><defs
     id="defs44"><linearGradient
       inkscape:collect="always"
       xlink:href="#SVGID_5_"
       id="linearGradient4329"
       x1="721.1015"
       y1="248.36922"
       x2="717.75787"
       y2="167.98872"
       gradientUnits="userSpaceOnUse"
       gradientTransform="translate(-100.25588,2.3875393)" /><linearGradient
       inkscape:collect="always"
       xlink:href="#SVGID_5_"
       id="linearGradient4331"
       gradientUnits="userSpaceOnUse"
       x1="188.7529"
       y1="250.2354"
       x2="186.5125"
       y2="102.9362"
       gradientTransform="translate(-110.63499,-98.765)" /><linearGradient
       inkscape:collect="always"
       xlink:href="#SVGID_5_"
       id="linearGradient4440"
       x1="105.5037"
       y1="98.686951"
       x2="606.49799"
       y2="98.686951"
       gradientUnits="userSpaceOnUse" /></defs><sodipodi:namedview
     pagecolor="#ffffff"
     bordercolor="#666666"
     borderopacity="1"
     objecttolerance="10"
     gridtolerance="10"
     guidetolerance="10"
     inkscape:pageopacity="0"
     inkscape:pageshadow="2"
     inkscape:window-width="2560"
     inkscape:window-height="1355"
     id="namedview42"
     showgrid="false"
     inkscape:zoom="3.553986"
     inkscape:cx="237.16627"
     inkscape:cy="97.164527"
     inkscape:window-x="0"
     inkscape:window-y="1080"
     inkscape:window-maximized="1"
     inkscape:current-layer="Layer_1"
     inkscape:snap-page="false"
     fit-margin-top="0"
     fit-margin-left="0"
     fit-margin-right="0"
     fit-margin-bottom="0" /><linearGradient
     id="SVGID_1_"
     gradientUnits="userSpaceOnUse"
     x1="350.02249"
     y1="247.7832"
     x2="347.78201"
     y2="100.4837"
     gradientTransform="translate(-110.63499,-98.765)"><stop
       offset="0"
       style="stop-color:#589632"
       id="stop6" /><stop
       offset="1"
       style="stop-color:#93B023"
       id="stop8" /></linearGradient><linearGradient
     id="SVGID_2_"
     gradientUnits="userSpaceOnUse"
     x1="459.22171"
     y1="246.1226"
     x2="456.98129"
     y2="98.822403"
     gradientTransform="translate(-110.63499,-98.765)"><stop
       offset="0"
       style="stop-color:#589632"
       id="stop13" /><stop
       offset="1"
       style="stop-color:#93B023"
       id="stop15" /></linearGradient><linearGradient
     id="SVGID_3_"
     gradientUnits="userSpaceOnUse"
     x1="553.50677"
     y1="244.6875"
     x2="551.26642"
     y2="97.388199"
     gradientTransform="translate(-110.63499,-98.765)"><stop
       offset="0"
       style="stop-color:#589632"
       id="stop20" /><stop
       offset="1"
       style="stop-color:#93B023"
       id="stop22" /></linearGradient><linearGradient
     id="SVGID_4_"
     gradientUnits="userSpaceOnUse"
     x1="234.4702"
     y1="250.03419"
     x2="232.211"
     y2="101.4977"><stop
       offset="0"
       style="stop-color:#589632"
       id="stop27" /><stop
       offset="1"
       style="stop-color:#93B023"
       id="stop29" /></linearGradient><linearGradient
     id="SVGID_5_"
     gradientUnits="userSpaceOnUse"
     x1="188.7529"
     y1="250.2354"
     x2="186.5125"
     y2="102.9362"><stop
       offset="0"
       style="stop-color:#589632"
       id="stop36" /><stop
       offset="1"
       style="stop-color:#93B023"
       id="stop38" /></linearGradient><polygon
     style="fill:#ee7913"
     points="176,162 176,183.433 195,202.37 195,180 216.513,180 198.306,162 "
     id="polygon3"
     transform="translate(-110.63499,-98.765)" /><path
     inkscape:connector-curvature="0"
     style="fill:url(#SVGID_1_)"
     d="m 303.61101,72.37 0,54.35 c -14.951,10.911 -37.782,18.386 -57.38,18.386 -42.833,0 -75.362,-31.113 -75.362,-72.129 0,-40.813 33.135,-71.725 77.182,-71.725 21.013,0 42.427,8.082 56.773,20.608 l -17.982,22.832 c -10.507,-9.698 -25.052,-15.76 -38.791,-15.76 -25.055,0 -44.451,19.194 -44.451,44.045 0,25.053 19.599,44.249 44.651,44.249 8.486,0 18.589,-3.031 27.681,-7.678 l 0,-37.177 27.679,0 z"
     id="path10" /><path
     inkscape:connector-curvature="0"
     style="fill:url(#SVGID_2_)"
     d="m 331.49401,143.691 0,-141.43 31.922,0 0,141.43 -31.922,0 z"
     id="path17" /><path
     inkscape:connector-curvature="0"
     style="fill:url(#SVGID_3_)"
     d="m 500.19601,16.202 -12.324,26.467 c -14.951,-8.89 -32.731,-14.547 -44.045,-14.547 -10.708,0 -17.981,3.839 -17.981,11.517 0,26.064 75.362,11.517 75.16,62.431 0,27.68 -24.045,42.631 -55.36,42.631 -23.236,0 -46.471,-8.89 -62.431,-22.427 l 12.728,-26.063 c 14.548,12.932 35.155,21.215 50.106,21.215 13.134,0 21.013,-4.849 21.013,-13.537 0,-26.669 -75.362,-11.112 -75.362,-61.219 0,-25.659 22.023,-41.823 54.755,-41.823 19.8,-0.001 39.599,6.061 53.741,15.355 z"
     id="path24" /><polygon
     style="fill:url(#SVGID_4_)"
     points="204,211.34 240.782,248 264,248 264,226.946 225.617,189 204,189 "
     id="polygon31"
     transform="translate(-110.63499,-98.765)" /><polygon
     style="fill:#f0e64a"
     points="195,180 195,202.37 204,211.34 204,189 225.617,189 216.513,180 "
     id="polygon33"
     transform="translate(-110.63499,-98.765)" /><path
     inkscape:connector-curvature="0"
     style="fill:url(#linearGradient4331)"
     d="m 87.41701,118.099 c -3.259,0.75 -6.648,1.157 -10.144,1.157 -25.005,0 -46.271,-20.562 -46.271,-47.222 0,-26.66 21.032,-46.769 46.271,-46.769 25.239,0 45.336,20.108 45.336,46.769 0,4.336 -0.54,8.508 -1.539,12.46 l 23.144,23.14 c 5.967,-10.455 9.305,-22.611 9.305,-35.778 0,-41.09 -32.791,-71.856 -76.714,-71.856 -43.722,0 -76.512,30.564 -76.512,71.856 0,41.494 32.791,72.666 76.512,72.666 11.287,0 21.835,-2.076 31.284,-5.854 l -20.672,-20.569 z"
     id="path40" /><path
     d="m 65.36501,63.235 88,86 0,-21.05469 -38.38281,-37.94531 -9.10352,-9 -18.20703,-18 z"
     id="polygon4174"
     style="fill:#ffffff;fill-opacity:0.17254902"
     inkscape:connector-curvature="0"
     sodipodi:nodetypes="ccccccc" /><g
     transform="scale(1.0118268,0.98831143)"
     style="font-style:normal;font-weight:normal;font-size:32.13090897px;line-height:125%;font-family:sans-serif;letter-spacing:0px;word-spacing:0px;fill:#5b9731;fill-opacity:1;stroke:none;stroke-width:1px;stroke-linecap:butt;stroke-linejoin:miter;stroke-opacity:1"
     id="text4430"><path
       d="m 17.63226,162.05195 0,4.9577 q -1.929737,-0.86289 -3.765341,-1.30218 -1.835603,-0.43929 -3.467251,-0.43929 -2.1650711,0 -3.2005398,0.59618 -1.0354688,0.59618 -1.0354688,1.85129 0,0.94134 0.6903125,1.47476 0.7060014,0.51773 2.5416051,0.89427 l 2.572983,0.51773 q 3.906541,0.78445 5.553878,2.38472 1.647336,1.60027 1.647336,4.54978 0,3.87517 -2.306271,5.77353 -2.290582,1.88267 -7.0129473,1.88267 -2.2278267,0 -4.4713423,-0.4236 -2.2435156,-0.4236 -4.48703123,-1.25512 l 0,-5.0989 q 2.24351563,1.19236 4.33014203,1.80423 2.1023153,0.59618 4.0477415,0.59618 1.9768043,0 3.0279613,-0.65894 1.051158,-0.65893 1.051158,-1.88267 0,-1.09822 -0.72169,-1.6944 -0.706002,-0.59618 -2.839695,-1.06685 l -2.3376491,-0.51773 q -3.5143182,-0.75307 -5.1459659,-2.40041 -1.61595879,-1.64733 -1.61595879,-4.43996 0,-3.49863 2.25920449,-5.3813 2.2592046,-1.88267 6.4952131,-1.88267 1.9297372,0 3.9692972,0.29809 2.039559,0.2824 4.220319,0.86289 z"
       style="font-style:normal;font-variant:normal;font-weight:bold;font-stretch:normal;font-family:sans-serif;-inkscape-font-specification:'sans-serif Bold';fill:#5b9731;fill-opacity:1"
       id="path5040" /><path
       d="m 22.495826,161.31457 5.789212,0 4.047741,17.02248 4.016364,-17.02248 5.820589,0 4.016364,17.02248 4.047741,-17.02248 5.742145,0 -5.5225,23.42356 -6.96588,0 -4.251698,-17.80693 -4.204631,17.80693 -6.96588,0 -5.569567,-23.42356 z"
       style="font-style:normal;font-variant:normal;font-weight:bold;font-stretch:normal;font-family:sans-serif;-inkscape-font-specification:'sans-serif Bold';fill:#5b9731;fill-opacity:1"
       id="path5042" /><path
       d="m 59.94528,161.31457 16.300788,0 0,4.56548 -10.260554,0 0,4.36152 9.648686,0 0,4.56547 -9.648686,0 0,5.36561 10.60571,0 0,4.56548 -16.645944,0 0,-23.42356 z"
       style="font-style:normal;font-variant:normal;font-weight:bold;font-stretch:normal;font-family:sans-serif;-inkscape-font-specification:'sans-serif Bold';fill:#5b9731;fill-opacity:1"
       id="path5044" /><path
       d="m 87.949999,165.88005 0,14.2926 2.165071,0 q 3.702585,0 5.648011,-1.8356 1.961116,-1.8356 1.961116,-5.33423 0,-3.48294 -1.945427,-5.30286 -1.945426,-1.81991 -5.6637,-1.81991 l -2.165071,0 z m -6.040234,-4.56548 6.369701,0 q 5.334233,0 7.938594,0.76876 2.62005,0.75307 4.48703,2.57298 1.64734,1.58458 2.44747,3.65552 0.80014,2.07094 0.80014,4.69099 0,2.65142 -0.80014,4.73805 -0.80013,2.07094 -2.44747,3.65552 -1.882669,1.81991 -4.518408,2.58867 -2.635738,0.75307 -7.907216,0.75307 l -6.369701,0 0,-23.42356 z"
       style="font-style:normal;font-variant:normal;font-weight:bold;font-stretch:normal;font-family:sans-serif;-inkscape-font-specification:'sans-serif Bold';fill:#5b9731;fill-opacity:1"
       id="path5046" /><path
       d="m 108.58093,161.31457 16.30079,0 0,4.56548 -10.26056,0 0,4.36152 9.64869,0 0,4.56547 -9.64869,0 0,5.36561 10.60571,0 0,4.56548 -16.64594,0 0,-23.42356 z"
       style="font-style:normal;font-variant:normal;font-weight:bold;font-stretch:normal;font-family:sans-serif;-inkscape-font-specification:'sans-serif Bold';fill:#5b9731;fill-opacity:1"
       id="path5048" /><path
       d="m 130.54542,161.31457 6.74623,0 8.51908,16.06545 0,-16.06545 5.72646,0 0,23.42356 -6.74623,0 -8.51909,-16.06546 0,16.06546 -5.72645,0 0,-23.42356 z"
       style="font-style:normal;font-variant:normal;font-weight:bold;font-stretch:normal;font-family:sans-serif;-inkscape-font-specification:'sans-serif Bold';fill:#5b9731;fill-opacity:1"
       id="path5050" /></g></svg>