<?xml version="1.0" encoding="UTF-8" standalone="no"?>
<!-- Generator: Adobe Illustrator 16.0.0, SVG Export Plug-In . SVG Version: 6.00 Build 0)  -->

<svg
   xmlns:dc="http://purl.org/dc/elements/1.1/"
   xmlns:cc="http://creativecommons.org/ns#"
   xmlns:rdf="http://www.w3.org/1999/02/22-rdf-syntax-ns#"
   xmlns:svg="http://www.w3.org/2000/svg"
   xmlns="http://www.w3.org/2000/svg"
   xmlns:xlink="http://www.w3.org/1999/xlink"
   xmlns:sodipodi="http://sodipodi.sourceforge.net/DTD/sodipodi-0.dtd"
   xmlns:inkscape="http://www.inkscape.org/namespaces/inkscape"
   version="1.1"
   id="Layer_1"
   x="0px"
   y="0px"
   width="153.519"
   height="183.42639"
   viewBox="0 0 153.519 183.4264"
   enable-background="new 0 0 722.569 346.291"
   xml:space="preserve"
   inkscape:version="0.91 r13725"
   sodipodi:docname="qgis.se-logo-4.svg"
   inkscape:export-filename="E:\Google Drive\QGIS_Graphics\Logo candidate 3.0 final files\qgis-logo_anita0.png"
   inkscape:export-xdpi="278"
   inkscape:export-ydpi="278"><metadata
     id="metadata46"><rdf:RDF><cc:Work
         rdf:about=""><dc:format>image/svg+xml</dc:format><dc:type
           rdf:resource="http://purl.org/dc/dcmitype/StillImage" /><dc:title /></cc:Work></rdf:RDF></metadata><defs
     id="defs44"><linearGradient
       inkscape:collect="always"
       xlink:href="#SVGID_5_"
       id="linearGradient4329"
       x1="721.1015"
       y1="248.36922"
       x2="717.75787"
       y2="167.98872"
       gradientUnits="userSpaceOnUse"
       gradientTransform="translate(-100.25588,2.3875393)" /><linearGradient
       inkscape:collect="always"
       xlink:href="#SVGID_5_"
       id="linearGradient4331"
       gradientUnits="userSpaceOnUse"
       x1="188.7529"
       y1="250.2354"
       x2="186.5125"
       y2="102.9362"
       gradientTransform="translate(-110.63501,-98.765)" /><linearGradient
       inkscape:collect="always"
       xlink:href="#SVGID_5_"
       id="linearGradient4440"
       x1="105.5037"
       y1="98.686951"
       x2="606.49799"
       y2="98.686951"
       gradientUnits="userSpaceOnUse" /></defs><sodipodi:namedview
     pagecolor="#ffffff"
     bordercolor="#666666"
     borderopacity="1"
     objecttolerance="10"
     gridtolerance="10"
     guidetolerance="10"
     inkscape:pageopacity="0"
     inkscape:pageshadow="2"
     inkscape:window-width="2560"
     inkscape:window-height="1355"
     id="namedview42"
     showgrid="false"
     inkscape:zoom="3.553986"
     inkscape:cx="214.68586"
     inkscape:cy="51.048067"
     inkscape:window-x="0"
     inkscape:window-y="1080"
     inkscape:window-maximized="1"
     inkscape:current-layer="Layer_1"
     inkscape:snap-page="false"
     fit-margin-top="0"
     fit-margin-left="0"
     fit-margin-right="0"
     fit-margin-bottom="0" /><linearGradient
     id="SVGID_1_"
     gradientUnits="userSpaceOnUse"
     x1="350.02249"
     y1="247.7832"
     x2="347.78201"
     y2="100.4837"
     gradientTransform="translate(-110.63499,-98.765)"><stop
       offset="0"
       style="stop-color:#589632"
       id="stop6" /><stop
       offset="1"
       style="stop-color:#93B023"
       id="stop8" /></linearGradient><linearGradient
     id="SVGID_2_"
     gradientUnits="userSpaceOnUse"
     x1="459.22171"
     y1="246.1226"
     x2="456.98129"
     y2="98.822403"
     gradientTransform="translate(-110.63499,-98.765)"><stop
       offset="0"
       style="stop-color:#589632"
       id="stop13" /><stop
       offset="1"
       style="stop-color:#93B023"
       id="stop15" /></linearGradient><linearGradient
     id="SVGID_3_"
     gradientUnits="userSpaceOnUse"
     x1="553.50677"
     y1="244.6875"
     x2="551.26642"
     y2="97.388199"
     gradientTransform="translate(-110.63499,-98.765)"><stop
       offset="0"
       style="stop-color:#589632"
       id="stop20" /><stop
       offset="1"
       style="stop-color:#93B023"
       id="stop22" /></linearGradient><linearGradient
     id="SVGID_4_"
     gradientUnits="userSpaceOnUse"
     x1="234.4702"
     y1="250.03419"
     x2="232.211"
     y2="101.4977"><stop
       offset="0"
       style="stop-color:#589632"
       id="stop27" /><stop
       offset="1"
       style="stop-color:#93B023"
       id="stop29" /></linearGradient><linearGradient
     id="SVGID_5_"
     gradientUnits="userSpaceOnUse"
     x1="188.7529"
     y1="250.2354"
     x2="186.5125"
     y2="102.9362"><stop
       offset="0"
       style="stop-color:#589632"
       id="stop36" /><stop
       offset="1"
       style="stop-color:#93B023"
       id="stop38" /></linearGradient><polygon
     style="fill:#ee7913"
     points="195,180 216.513,180 198.306,162 176,162 176,183.433 195,202.37 "
     id="polygon3"
     transform="translate(-110.63501,-98.765)" /><polygon
     style="fill:url(#SVGID_4_)"
     points="264,226.946 225.617,189 204,189 204,211.34 240.782,248 264,248 "
     id="polygon31"
     transform="translate(-110.63501,-98.765)" /><polygon
     style="fill:#f0e64a"
     points="204,189 225.617,189 216.513,180 195,180 195,202.37 204,211.34 "
     id="polygon33"
     transform="translate(-110.63501,-98.765)" /><path
     inkscape:connector-curvature="0"
     style="fill:url(#linearGradient4331)"
     d="m 87.416995,118.099 c -3.259,0.75 -6.648,1.157 -10.144,1.157 -25.005,0 -46.271,-20.562 -46.271,-47.222 0,-26.66 21.032,-46.769 46.271,-46.769 25.238995,0 45.335995,20.108 45.335995,46.769 0,4.336 -0.54,8.508 -1.539,12.46 l 23.144,23.14 c 5.967,-10.455 9.305,-22.611 9.305,-35.778 C 153.51899,30.766 120.72799,0 76.804995,0 33.082995,0 0.29299472,30.564 0.29299472,71.856 c 0,41.494 32.79100028,72.666 76.51200028,72.666 11.287,0 21.835,-2.076 31.283995,-5.854 L 87.416995,118.099 Z"
     id="path40" /><path
     d="m 65.364995,63.235 87.999995,86 0,-21.05469 -38.38281,-37.94531 -9.10352,-9 -18.207025,-18 z"
     id="polygon4174"
     style="fill:#ffffff;fill-opacity:0.17254902"
     inkscape:connector-curvature="0"
     sodipodi:nodetypes="ccccccc" /><g
     style="font-style:normal;font-weight:normal;font-size:32.8075676px;line-height:125%;font-family:sans-serif;letter-spacing:0px;word-spacing:0px;fill:#5b9731;fill-opacity:1;stroke:none;stroke-width:1px;stroke-linecap:butt;stroke-linejoin:miter;stroke-opacity:1"
     id="text4430"><path
       d="m 17.30085,159.7979 0,5.06211 q -1.970376,-0.88107 -3.844636,-1.32961 -1.874261,-0.44854 -3.5402701,-0.44854 -2.2106662,0 -3.2679413,0.60874 -1.0572751,0.60873 -1.0572751,1.89028 0,0.96115 0.7048501,1.50581 0.7208694,0.52864 2.5951298,0.9131 l 2.6271686,0.52864 q 3.988811,0.80097 5.670839,2.43494 1.682029,1.63397 1.682029,4.6456 0,3.95677 -2.35484,5.89511 -2.338821,1.92232 -7.1606363,1.92232 -2.2747435,0 -4.5655062,-0.43252 -2.2907628,-0.43253 -4.58152558,-1.28155 l 0,-5.20628 q 2.29076278,1.21747 4.42133238,1.84222 2.1465889,0.60874 4.1329846,0.60874 2.0184341,0 3.0917291,-0.67281 1.073294,-0.67282 1.073294,-1.92232 0,-1.12135 -0.736889,-1.73009 -0.720869,-0.60873 -2.8994966,-1.08931 l -2.3868787,-0.52864 q -3.5883277,-0.76893 -5.254337,-2.45096 -1.649989942025,-1.68202 -1.649989942025,-4.53346 0,-3.57231 2.306782142025,-5.49463 2.3067821,-1.92232 6.6319985,-1.92232 1.9703766,0 4.0528876,0.30437 2.082512,0.28835 4.309197,0.88106 z"
       style="font-style:normal;font-variant:normal;font-weight:bold;font-stretch:normal;font-family:sans-serif;-inkscape-font-specification:'sans-serif Bold';fill:#5b9731;fill-opacity:1"
       id="path4745" /><path
       d="m 21.449854,159.04499 6.199477,0 6.343651,17.65329 6.327631,-17.65329 6.199477,0 -8.858684,23.91685 -7.352868,0 -8.858684,-23.91685 z"
       style="font-style:normal;font-variant:normal;font-weight:bold;font-stretch:normal;font-family:sans-serif;-inkscape-font-specification:'sans-serif Bold';fill:#5b9731;fill-opacity:1"
       id="path4747" /><path
       d="m 49.675896,159.04499 16.644074,0 0,4.66162 -10.476636,0 0,4.45338 9.851882,0 0,4.66162 -9.851882,0 0,5.47861 10.829061,0 0,4.66162 -16.996499,0 0,-23.91685 z"
       style="font-style:normal;font-variant:normal;font-weight:bold;font-stretch:normal;font-family:sans-serif;-inkscape-font-specification:'sans-serif Bold';fill:#5b9731;fill-opacity:1"
       id="path4749" /><path
       d="m 80.865512,169.64978 q 1.938338,0 2.771342,-0.72087 0.849024,-0.72087 0.849024,-2.37086 0,-1.63397 -0.849024,-2.33882 -0.833004,-0.70485 -2.771342,-0.70485 l -2.59513,0 0,6.1354 2.59513,0 z m -2.59513,4.26114 0,9.05092 -6.167438,0 0,-23.91685 9.41936,0 q 4.7257,0 6.920346,1.58592 2.210667,1.58591 2.210667,5.01404 0,2.37086 -1.153391,3.8927 -1.137372,1.52183 -3.444154,2.2427 1.265526,0.28835 2.258724,1.31359 1.009217,1.00921 2.034453,3.07571 l 3.348038,6.79219 -6.567921,0 -2.915516,-5.94317 q -0.881063,-1.79416 -1.794164,-2.45096 -0.897082,-0.65679 -2.402898,-0.65679 l -1.746106,0 z"
       style="font-style:normal;font-variant:normal;font-weight:bold;font-stretch:normal;font-family:sans-serif;-inkscape-font-specification:'sans-serif Bold';fill:#5b9731;fill-opacity:1"
       id="path4751" /><path
       d="m 97.349389,159.04499 6.167441,0 0,23.91685 -6.167441,0 0,-23.91685 z"
       style="font-style:normal;font-variant:normal;font-weight:bold;font-stretch:normal;font-family:sans-serif;-inkscape-font-specification:'sans-serif Bold';fill:#5b9731;fill-opacity:1"
       id="path4753" /><path
       d="m 131.08608,181.18369 q -2.30678,1.12136 -4.78978,1.68203 -2.48299,0.56068 -5.12618,0.56068 -5.97521,0 -9.46742,-3.33202 -3.49221,-3.34804 -3.49221,-9.06694 0,-5.78297 3.55629,-9.09897 3.55629,-3.316 9.73974,-3.316 2.38688,0 4.56551,0.44854 2.19465,0.44854 4.13299,1.32961 l 0,4.94997 q -2.00242,-1.13738 -3.98882,-1.69805 -1.97037,-0.56068 -3.95677,-0.56068 -3.68444,0 -5.68686,2.06649 -1.98639,2.05048 -1.98639,5.87909 0,3.79658 1.92232,5.86308 1.92232,2.06649 5.46258,2.06649 0.96116,0 1.77815,-0.11214 0.833,-0.12815 1.4898,-0.38446 l 0,-4.6456 -3.76454,0 0,-4.13299 9.61159,0 0,11.50187 z"
       style="font-style:normal;font-variant:normal;font-weight:bold;font-stretch:normal;font-family:sans-serif;-inkscape-font-specification:'sans-serif Bold';fill:#5b9731;fill-opacity:1"
       id="path4755" /><path
       d="m 136.50062,159.04499 16.64407,0 0,4.66162 -10.47663,0 0,4.45338 9.85188,0 0,4.66162 -9.85188,0 0,5.47861 10.82906,0 0,4.66162 -16.9965,0 0,-23.91685 z"
       style="font-style:normal;font-variant:normal;font-weight:bold;font-stretch:normal;font-family:sans-serif;-inkscape-font-specification:'sans-serif Bold';fill:#5b9731;fill-opacity:1"
       id="path4757" /></g></svg>