<?xml version="1.0" encoding="UTF-8" standalone="no"?>
<svg
   xmlns:dc="http://purl.org/dc/elements/1.1/"
   xmlns:cc="http://creativecommons.org/ns#"
   xmlns:rdf="http://www.w3.org/1999/02/22-rdf-syntax-ns#"
   xmlns:svg="http://www.w3.org/2000/svg"
   xmlns="http://www.w3.org/2000/svg"
   xmlns:xlink="http://www.w3.org/1999/xlink"
   xml:space="preserve"
   enable-background="new 0 0 722.569 346.291"
   viewBox="0 0 240.14656 179.082"
   height="179.08199"
   width="240.14655"
   y="0px"
   x="0px"
   id="Layer_1"
   version="1.1"><metadata
     id="metadata46"><rdf:RDF><cc:Work
         rdf:about=""><dc:format>image/svg+xml</dc:format><dc:type
           rdf:resource="http://purl.org/dc/dcmitype/StillImage" /><dc:title></dc:title></cc:Work></rdf:RDF></metadata><defs
     id="defs44"><linearGradient
       gradientTransform="translate(-100.25588,2.3875393)"
       gradientUnits="userSpaceOnUse"
       y2="167.98872"
       x2="717.75787"
       y1="248.36922"
       x1="721.1015"
       id="linearGradient4329"
       xlink:href="#SVGID_5_" /><linearGradient
       gradientTransform="translate(-100.20591,-87.198628)"
       y2="102.9362"
       x2="186.5125"
       y1="250.2354"
       x1="188.7529"
       gradientUnits="userSpaceOnUse"
       id="linearGradient4331"
       xlink:href="#SVGID_5_" /><linearGradient
       gradientUnits="userSpaceOnUse"
       y2="98.686951"
       x2="606.49799"
       y1="98.686951"
       x1="105.5037"
       id="linearGradient4440"
       xlink:href="#SVGID_5_" /><filter
       id="filter4928"
       style="color-interpolation-filters:sRGB"><feFlood
         id="feFlood4930"
         result="flood"
         flood-color="rgb(0,0,0)"
         flood-opacity="0.784314" /><feComposite
         id="feComposite4932"
         result="composite1"
         operator="in"
         in2="SourceGraphic"
         in="flood" /><feGaussianBlur
         id="feGaussianBlur4934"
         result="blur"
         stdDeviation="6.54348"
         in="composite1" /><feOffset
         id="feOffset4936"
         result="offset"
         dy="3"
         dx="3.3" /><feComposite
         id="feComposite4938"
         result="composite2"
         operator="over"
         in2="offset"
         in="SourceGraphic" /></filter></defs><linearGradient
     gradientTransform="translate(-110.63499,-98.765)"
     y2="100.4837"
     x2="347.78201"
     y1="247.7832"
     x1="350.02249"
     gradientUnits="userSpaceOnUse"
     id="SVGID_1_"><stop
       id="stop6"
       style="stop-color:#589632"
       offset="0" /><stop
       id="stop8"
       style="stop-color:#93B023"
       offset="1" /></linearGradient><linearGradient
     gradientTransform="translate(-110.63499,-98.765)"
     y2="98.822403"
     x2="456.98129"
     y1="246.1226"
     x1="459.22171"
     gradientUnits="userSpaceOnUse"
     id="SVGID_2_"><stop
       id="stop13"
       style="stop-color:#589632"
       offset="0" /><stop
       id="stop15"
       style="stop-color:#93B023"
       offset="1" /></linearGradient><linearGradient
     gradientTransform="translate(-110.63499,-98.765)"
     y2="97.388199"
     x2="551.26642"
     y1="244.6875"
     x1="553.50677"
     gradientUnits="userSpaceOnUse"
     id="SVGID_3_"><stop
       id="stop20"
       style="stop-color:#589632"
       offset="0" /><stop
       id="stop22"
       style="stop-color:#93B023"
       offset="1" /></linearGradient><linearGradient
     y2="101.4977"
     x2="232.211"
     y1="250.03419"
     x1="234.4702"
     gradientUnits="userSpaceOnUse"
     id="SVGID_4_"><stop
       id="stop27"
       style="stop-color:#589632"
       offset="0" /><stop
       id="stop29"
       style="stop-color:#93B023"
       offset="1" /></linearGradient><linearGradient
     y2="102.9362"
     x2="186.5125"
     y1="250.2354"
     x1="188.7529"
     gradientUnits="userSpaceOnUse"
     id="SVGID_5_"><stop
       id="stop36"
       style="stop-color:#589632"
       offset="0" /><stop
       id="stop38"
       style="stop-color:#93B023"
       offset="1" /></linearGradient><g
     transform="translate(4.6004941,3.3571281)"
     id="g4946"><path
       style="fill:#006aa7;fill-opacity:1;stroke:none;stroke-width:1;stroke-miterlimit:4;stroke-dasharray:none"
       d="m 139.75055,82.952713 95.79549,0 0,77.695127 -94.90016,-0.0241 -9.04909,-43.84172 -0.0449,-20.774483 z"
       id="rect4286" /><rect
       style="fill:#fecc00;fill-opacity:1;stroke:none;stroke-width:1;stroke-miterlimit:4;stroke-dasharray:none"
       id="rect4288"
       width="21.591999"
       height="77.662796"
       x="171.07417"
       y="82.952713" /><rect
       style="fill:#fecc00;fill-opacity:1;stroke:none;stroke-width:1;stroke-miterlimit:4;stroke-dasharray:none"
       id="rect4290"
       width="103.75396"
       height="19.931547"
       x="131.79208"
       y="111.77679" /></g><g
     transform="translate(4.6004941,3.3571281)"
     style="filter:url(#filter4928)"
     id="g4315"><polygon
       style="fill:#ee7913"
       points="176,162 176,183.433 195,202.37 195,180 216.513,180 198.306,162 "
       id="polygon3"
       transform="translate(-100.20591,-87.198628)" /><polygon
       style="fill:url(#SVGID_4_)"
       points="204,211.34 240.782,248 264,248 264,226.946 225.617,189 204,189 "
       id="polygon31"
       transform="translate(-100.20591,-87.198628)" /><polygon
       style="fill:#f0e64a"
       points="195,180 195,202.37 204,211.34 204,189 225.617,189 216.513,180 "
       id="polygon33"
       transform="translate(-100.20591,-87.198628)" /><path
       style="fill:url(#linearGradient4331)"
       d="m 97.84609,129.66537 c -3.259,0.75 -6.648,1.157 -10.144,1.157 -25.005,0 -46.271,-20.562 -46.271,-47.221998 0,-26.66 21.032,-46.769 46.271,-46.769 25.239,0 45.336,20.108 45.336,46.769 0,4.336 -0.54,8.508 -1.539,12.46 l 23.144,23.139998 c 5.967,-10.455 9.305,-22.610998 9.305,-35.777998 0,-41.09 -32.791,-71.856 -76.714,-71.856 -43.722,0 -76.511999,30.564 -76.511999,71.856 0,41.493998 32.790999,72.665998 76.511999,72.665998 11.287,0 21.835,-2.076 31.284,-5.854 l -20.672,-20.569 z"
       id="path40" /><path
       d="m 75.79409,74.801372 88,85.999998 0,-21.05469 -38.38281,-37.94531 -9.10352,-8.999998 -18.20703,-18 z"
       id="polygon4174"
       style="fill:#ffffff;fill-opacity:0.17254902" /></g><flowRoot
     transform="translate(1.0295584,14.9235)"
     style="font-style:normal;font-weight:normal;font-size:40px;line-height:1000%;font-family:sans-serif;letter-spacing:0px;word-spacing:0px;fill:#000000;fill-opacity:1;stroke:none;stroke-width:1px;stroke-linecap:butt;stroke-linejoin:miter;stroke-opacity:1"
     id="flowRoot3546"
     xml:space="preserve"><flowRegion
       id="flowRegion3548"><rect
         style="line-height:1000%"
         y="-6.7825737"
         x="221.72287"
         height="130.839"
         width="118.45854"
         id="rect3550" /></flowRegion><flowPara
       id="flowPara3552" /><flowPara
       id="flowPara4295" /><flowPara
       id="flowPara4297" /><flowPara
       id="flowPara4299" /><flowPara
       id="flowPara4301" /><flowPara
       id="flowPara4303" /></flowRoot><text
     id="text5208"
     y="102.04206"
     x="309.40967"
     style="font-style:normal;font-weight:normal;font-size:40px;line-height:1000%;font-family:sans-serif;letter-spacing:0px;word-spacing:0px;fill:#000000;fill-opacity:1;stroke:none;stroke-width:1px;stroke-linecap:butt;stroke-linejoin:miter;stroke-opacity:1"
     xml:space="preserve"><tspan
       y="102.04206"
       x="309.40967"
       id="tspan5210" /></text>
</svg>