<?xml version="1.0" encoding="UTF-8" standalone="no"?>
<!-- Generator: Adobe Illustrator 16.0.0, SVG Export Plug-In . SVG Version: 6.00 Build 0)  -->

<svg
   xmlns:dc="http://purl.org/dc/elements/1.1/"
   xmlns:cc="http://creativecommons.org/ns#"
   xmlns:rdf="http://www.w3.org/1999/02/22-rdf-syntax-ns#"
   xmlns:svg="http://www.w3.org/2000/svg"
   xmlns="http://www.w3.org/2000/svg"
   xmlns:xlink="http://www.w3.org/1999/xlink"
   xmlns:sodipodi="http://sodipodi.sourceforge.net/DTD/sodipodi-0.dtd"
   xmlns:inkscape="http://www.inkscape.org/namespaces/inkscape"
   version="1.1"
   id="Layer_1"
   x="0px"
   y="0px"
   width="501.00638"
   height="183.42639"
   viewBox="0 0 501.0064 183.4264"
   enable-background="new 0 0 722.569 346.291"
   xml:space="preserve"
   inkscape:version="0.91 r13725"
   sodipodi:docname="qgis.se-logo-3.svg"
   inkscape:export-filename="E:\Google Drive\QGIS_Graphics\Logo candidate 3.0 final files\qgis-logo_anita0.png"
   inkscape:export-xdpi="278"
   inkscape:export-ydpi="278"><metadata
     id="metadata46"><rdf:RDF><cc:Work
         rdf:about=""><dc:format>image/svg+xml</dc:format><dc:type
           rdf:resource="http://purl.org/dc/dcmitype/StillImage" /><dc:title /></cc:Work></rdf:RDF></metadata><defs
     id="defs44"><linearGradient
       inkscape:collect="always"
       xlink:href="#SVGID_5_"
       id="linearGradient4329"
       x1="721.1015"
       y1="248.36922"
       x2="717.75787"
       y2="167.98872"
       gradientUnits="userSpaceOnUse"
       gradientTransform="translate(-100.25588,2.3875393)" /><linearGradient
       inkscape:collect="always"
       xlink:href="#SVGID_5_"
       id="linearGradient4331"
       gradientUnits="userSpaceOnUse"
       x1="188.7529"
       y1="250.2354"
       x2="186.5125"
       y2="102.9362" /><linearGradient
       inkscape:collect="always"
       xlink:href="#SVGID_5_"
       id="linearGradient4440"
       x1="105.5037"
       y1="98.686951"
       x2="606.49799"
       y2="98.686951"
       gradientUnits="userSpaceOnUse" /></defs><sodipodi:namedview
     pagecolor="#ffffff"
     bordercolor="#666666"
     borderopacity="1"
     objecttolerance="10"
     gridtolerance="10"
     guidetolerance="10"
     inkscape:pageopacity="0"
     inkscape:pageshadow="2"
     inkscape:window-width="2560"
     inkscape:window-height="1355"
     id="namedview42"
     showgrid="false"
     inkscape:zoom="3.553986"
     inkscape:cx="214.68588"
     inkscape:cy="51.048071"
     inkscape:window-x="0"
     inkscape:window-y="1080"
     inkscape:window-maximized="1"
     inkscape:current-layer="text4430"
     inkscape:snap-page="false"
     fit-margin-top="0"
     fit-margin-left="0"
     fit-margin-right="0"
     fit-margin-bottom="0" /><linearGradient
     id="SVGID_1_"
     gradientUnits="userSpaceOnUse"
     x1="350.02249"
     y1="247.7832"
     x2="347.78201"
     y2="100.4837"><stop
       offset="0"
       style="stop-color:#589632"
       id="stop6" /><stop
       offset="1"
       style="stop-color:#93B023"
       id="stop8" /></linearGradient><linearGradient
     id="SVGID_2_"
     gradientUnits="userSpaceOnUse"
     x1="459.22171"
     y1="246.1226"
     x2="456.98129"
     y2="98.822403"><stop
       offset="0"
       style="stop-color:#589632"
       id="stop13" /><stop
       offset="1"
       style="stop-color:#93B023"
       id="stop15" /></linearGradient><linearGradient
     id="SVGID_3_"
     gradientUnits="userSpaceOnUse"
     x1="553.50677"
     y1="244.6875"
     x2="551.26642"
     y2="97.388199"><stop
       offset="0"
       style="stop-color:#589632"
       id="stop20" /><stop
       offset="1"
       style="stop-color:#93B023"
       id="stop22" /></linearGradient><linearGradient
     id="SVGID_4_"
     gradientUnits="userSpaceOnUse"
     x1="234.4702"
     y1="250.03419"
     x2="232.211"
     y2="101.4977"><stop
       offset="0"
       style="stop-color:#589632"
       id="stop27" /><stop
       offset="1"
       style="stop-color:#93B023"
       id="stop29" /></linearGradient><linearGradient
     id="SVGID_5_"
     gradientUnits="userSpaceOnUse"
     x1="188.7529"
     y1="250.2354"
     x2="186.5125"
     y2="102.9362"><stop
       offset="0"
       style="stop-color:#589632"
       id="stop36" /><stop
       offset="1"
       style="stop-color:#93B023"
       id="stop38" /></linearGradient><g
     id="g3513"
     transform="translate(-110.63499,-98.765)"><polygon
       id="polygon3"
       points="216.513,180 198.306,162 176,162 176,183.433 195,202.37 195,180 "
       style="fill:#ee7913" /><path
       id="path10"
       d="m 414.246,171.135 0,54.35 c -14.951,10.911 -37.782,18.386 -57.38,18.386 -42.833,0 -75.362,-31.113 -75.362,-72.129 0,-40.813 33.135,-71.725 77.182,-71.725 21.013,0 42.427,8.082 56.773,20.608 l -17.982,22.832 c -10.507,-9.698 -25.052,-15.76 -38.791,-15.76 -25.055,0 -44.451,19.194 -44.451,44.045 0,25.053 19.599,44.249 44.651,44.249 8.486,0 18.589,-3.031 27.681,-7.678 l 0,-37.177 27.679,0 z"
       style="fill:url(#SVGID_1_)"
       inkscape:connector-curvature="0" /><path
       id="path17"
       d="m 442.129,242.456 0,-141.43 31.922,0 0,141.43 -31.922,0 z"
       style="fill:url(#SVGID_2_)"
       inkscape:connector-curvature="0" /><path
       id="path24"
       d="m 610.831,114.967 -12.324,26.467 c -14.951,-8.89 -32.731,-14.547 -44.045,-14.547 -10.708,0 -17.981,3.839 -17.981,11.517 0,26.064 75.362,11.517 75.16,62.431 0,27.68 -24.045,42.631 -55.36,42.631 -23.236,0 -46.471,-8.89 -62.431,-22.427 l 12.728,-26.063 c 14.548,12.932 35.155,21.215 50.106,21.215 13.134,0 21.013,-4.849 21.013,-13.537 0,-26.669 -75.362,-11.112 -75.362,-61.219 0,-25.659 22.023,-41.823 54.755,-41.823 19.8,-10e-4 39.599,6.061 53.741,15.355 z"
       style="fill:url(#SVGID_3_)"
       inkscape:connector-curvature="0" /><polygon
       id="polygon31"
       points="225.617,189 204,189 204,211.34 240.782,248 264,248 264,226.946 "
       style="fill:url(#SVGID_4_)" /><polygon
       id="polygon33"
       points="225.617,189 216.513,180 195,180 195,202.37 204,211.34 204,189 "
       style="fill:#f0e64a" /><path
       id="path40"
       d="m 198.052,216.864 c -3.259,0.75 -6.648,1.157 -10.144,1.157 -25.005,0 -46.271,-20.562 -46.271,-47.222 0,-26.66 21.032,-46.769 46.271,-46.769 25.239,0 45.336,20.108 45.336,46.769 0,4.336 -0.54,8.508 -1.539,12.46 l 23.144,23.14 c 5.967,-10.455 9.305,-22.611 9.305,-35.778 0,-41.09 -32.791,-71.856 -76.714,-71.856 -43.722,0 -76.512,30.564 -76.512,71.856 0,41.494 32.791,72.666 76.512,72.666 11.287,0 21.835,-2.076 31.284,-5.854 l -20.672,-20.569 z"
       style="fill:url(#linearGradient4331)"
       inkscape:connector-curvature="0" /><path
       sodipodi:nodetypes="ccccccc"
       inkscape:connector-curvature="0"
       style="fill:#ffffff;fill-opacity:0.17254902"
       id="polygon4174"
       d="m 176,162 88,86 0,-21.05469 L 225.61719,189 l -9.10352,-9 -18.20703,-18 z" /></g><g
     style="font-style:normal;font-weight:normal;font-size:32.8075676px;line-height:125%;font-family:sans-serif;letter-spacing:0px;word-spacing:0px;fill:#5b9731;fill-opacity:1;stroke:none;stroke-width:1px;stroke-linecap:butt;stroke-linejoin:miter;stroke-opacity:1"
     id="text4430"><path
       d="m 17.300866,159.7979 0,5.06211 q -1.970377,-0.88107 -3.844637,-1.32961 -1.874261,-0.44854 -3.5402698,-0.44854 -2.2106662,0 -3.2679413,0.60874 -1.0572752,0.60873 -1.0572752,1.89028 0,0.96115 0.7048501,1.50581 0.7208694,0.52864 2.5951299,0.9131 l 2.6271683,0.52864 q 3.988811,0.80097 5.67084,2.43494 1.682028,1.63397 1.682028,4.6456 0,3.95677 -2.35484,5.89511 -2.338821,1.92232 -7.160636,1.92232 -2.2747435,0 -4.5655063,-0.43252 -2.2907627,-0.43253 -4.58152552,-1.28155 l 0,-5.20628 q 2.29076282,1.21747 4.42133232,1.84222 2.1465889,0.60874 4.1329846,0.60874 2.0184339,0 3.0917289,-0.67281 1.073294,-0.67282 1.073294,-1.92232 0,-1.12135 -0.736888,-1.73009 -0.72087,-0.60873 -2.8994973,-1.08931 L 6.904327,173.01384 Q 3.3159993,172.24491 1.64999,170.56288 1.6763806e-8,168.88086 1.6763806e-8,166.02942 q 0,-3.57231 2.306782083236194,-5.49463 2.3067821,-1.92232 6.6319985,-1.92232 1.9703764,0 4.0528884,0.30437 2.082511,0.28835 4.309197,0.88106 z"
       style="font-style:normal;font-variant:normal;font-weight:bold;font-stretch:normal;font-family:sans-serif;-inkscape-font-specification:'sans-serif Bold';fill:#5b9731;fill-opacity:1"
       id="path4321" /><path
       d="m 21.449869,159.04499 6.199477,0 6.343651,17.65329 6.327631,-17.65329 6.199477,0 -8.858684,23.91685 -7.352868,0 -8.858684,-23.91685 z"
       style="font-style:normal;font-variant:normal;font-weight:bold;font-stretch:normal;font-family:sans-serif;-inkscape-font-specification:'sans-serif Bold';fill:#5b9731;fill-opacity:1"
       id="path4323" /><path
       d="m 49.675911,159.04499 16.644074,0 0,4.66162 -10.476635,0 0,4.45338 9.851882,0 0,4.66162 -9.851882,0 0,5.47861 10.82906,0 0,4.66162 -16.996499,0 0,-23.91685 z"
       style="font-style:normal;font-variant:normal;font-weight:bold;font-stretch:normal;font-family:sans-serif;-inkscape-font-specification:'sans-serif Bold';fill:#5b9731;fill-opacity:1"
       id="path4325" /><path
       d="m 80.865527,169.64978 q 1.938338,0 2.771343,-0.72087 0.849024,-0.72087 0.849024,-2.37086 0,-1.63397 -0.849024,-2.33882 -0.833005,-0.70485 -2.771343,-0.70485 l -2.59513,0 0,6.1354 2.59513,0 z m -2.59513,4.26114 0,9.05092 -6.167438,0 0,-23.91685 9.41936,0 q 4.7257,0 6.920347,1.58592 2.210666,1.58591 2.210666,5.01404 0,2.37086 -1.153391,3.8927 -1.137372,1.52183 -3.444154,2.2427 1.265526,0.28835 2.258724,1.31359 1.009217,1.00921 2.034454,3.07571 l 3.348038,6.79219 -6.567922,0 -2.915516,-5.94317 q -0.881062,-1.79416 -1.794164,-2.45096 -0.897082,-0.65679 -2.402898,-0.65679 l -1.746106,0 z"
       style="font-style:normal;font-variant:normal;font-weight:bold;font-stretch:normal;font-family:sans-serif;-inkscape-font-specification:'sans-serif Bold';fill:#5b9731;fill-opacity:1"
       id="path4327" /><path
       d="m 97.349404,159.04499 6.167436,0 0,23.91685 -6.167436,0 0,-23.91685 z"
       style="font-style:normal;font-variant:normal;font-weight:bold;font-stretch:normal;font-family:sans-serif;-inkscape-font-specification:'sans-serif Bold';fill:#5b9731;fill-opacity:1"
       id="path4329" /><path
       d="m 131.08609,181.18369 q -2.30678,1.12136 -4.78977,1.68203 -2.483,0.56068 -5.12619,0.56068 -5.9752,0 -9.46741,-3.33202 -3.49222,-3.34804 -3.49222,-9.06694 0,-5.78297 3.55629,-9.09897 3.55629,-3.316 9.73975,-3.316 2.38688,0 4.56551,0.44854 2.19464,0.44854 4.13298,1.32961 l 0,4.94997 q -2.00241,-1.13738 -3.98881,-1.69805 -1.97038,-0.56068 -3.95677,-0.56068 -3.68445,0 -5.68686,2.06649 -1.9864,2.05048 -1.9864,5.87909 0,3.79658 1.92232,5.86308 1.92232,2.06649 5.46259,2.06649 0.96116,0 1.77814,-0.11214 0.83301,-0.12815 1.4898,-0.38446 l 0,-4.6456 -3.76454,0 0,-4.13299 9.61159,0 0,11.50187 z"
       style="font-style:normal;font-variant:normal;font-weight:bold;font-stretch:normal;font-family:sans-serif;-inkscape-font-specification:'sans-serif Bold';fill:#5b9731;fill-opacity:1"
       id="path4331" /><path
       d="m 136.50063,159.04499 16.64408,0 0,4.66162 -10.47664,0 0,4.45338 9.85188,0 0,4.66162 -9.85188,0 0,5.47861 10.82906,0 0,4.66162 -16.9965,0 0,-23.91685 z"
       style="font-style:normal;font-variant:normal;font-weight:bold;font-stretch:normal;font-family:sans-serif;-inkscape-font-specification:'sans-serif Bold';fill:#5b9731;fill-opacity:1"
       id="path4333" /></g></svg>