<?xml version="1.0" encoding="UTF-8" standalone="no"?>
<!-- Generator: Adobe Illustrator 16.0.0, SVG Export Plug-In . SVG Version: 6.00 Build 0)  -->

<svg
   xmlns:dc="http://purl.org/dc/elements/1.1/"
   xmlns:cc="http://creativecommons.org/ns#"
   xmlns:rdf="http://www.w3.org/1999/02/22-rdf-syntax-ns#"
   xmlns:svg="http://www.w3.org/2000/svg"
   xmlns="http://www.w3.org/2000/svg"
   xmlns:xlink="http://www.w3.org/1999/xlink"
   xmlns:sodipodi="http://sodipodi.sourceforge.net/DTD/sodipodi-0.dtd"
   xmlns:inkscape="http://www.inkscape.org/namespaces/inkscape"
   version="1.1"
   id="Layer_1"
   x="0px"
   y="0px"
   width="369.27271"
   height="172.30074"
   viewBox="0 0 369.27272 172.30075"
   enable-background="new 0 0 722.569 346.291"
   xml:space="preserve"
   inkscape:version="0.91 r13725"
   sodipodi:docname="qgis-logo-made-with-color.svg"
   inkscape:export-filename="E:\Google Drive\QGIS_Graphics\Logo candidate 3.0 final files\qgis-logo_anita0.png"
   inkscape:export-xdpi="278"
   inkscape:export-ydpi="278"><metadata
     id="metadata46"><rdf:RDF><cc:Work
         rdf:about=""><dc:format>image/svg+xml</dc:format><dc:type
           rdf:resource="http://purl.org/dc/dcmitype/StillImage" /><dc:title /></cc:Work></rdf:RDF></metadata><defs
     id="defs44"><linearGradient
       inkscape:collect="always"
       xlink:href="#SVGID_5_"
       id="linearGradient4329"
       x1="721.1015"
       y1="248.36922"
       x2="717.75787"
       y2="167.98872"
       gradientUnits="userSpaceOnUse"
       gradientTransform="translate(-100.25588,2.3875393)" /><linearGradient
       inkscape:collect="always"
       xlink:href="#SVGID_5_"
       id="linearGradient4331"
       gradientUnits="userSpaceOnUse"
       x1="188.7529"
       y1="250.2354"
       x2="186.5125"
       y2="102.9362"
       gradientTransform="translate(-100.20591,-87.198628)" /><linearGradient
       inkscape:collect="always"
       xlink:href="#SVGID_5_"
       id="linearGradient4440"
       x1="105.5037"
       y1="98.686951"
       x2="606.49799"
       y2="98.686951"
       gradientUnits="userSpaceOnUse" /></defs><sodipodi:namedview
     pagecolor="#ffffff"
     bordercolor="#666666"
     borderopacity="1"
     objecttolerance="10"
     gridtolerance="10"
     guidetolerance="10"
     inkscape:pageopacity="0"
     inkscape:pageshadow="2"
     inkscape:window-width="2560"
     inkscape:window-height="1355"
     id="namedview42"
     showgrid="false"
     inkscape:zoom="2.5130476"
     inkscape:cx="69.491242"
     inkscape:cy="87.269165"
     inkscape:window-x="0"
     inkscape:window-y="1080"
     inkscape:window-maximized="1"
     inkscape:current-layer="text3538"
     inkscape:snap-page="false"
     fit-margin-top="0"
     fit-margin-left="0"
     fit-margin-right="0"
     fit-margin-bottom="0" /><linearGradient
     id="SVGID_1_"
     gradientUnits="userSpaceOnUse"
     x1="350.02249"
     y1="247.7832"
     x2="347.78201"
     y2="100.4837"
     gradientTransform="translate(-110.63499,-98.765)"><stop
       offset="0"
       style="stop-color:#589632"
       id="stop6" /><stop
       offset="1"
       style="stop-color:#93B023"
       id="stop8" /></linearGradient><linearGradient
     id="SVGID_2_"
     gradientUnits="userSpaceOnUse"
     x1="459.22171"
     y1="246.1226"
     x2="456.98129"
     y2="98.822403"
     gradientTransform="translate(-110.63499,-98.765)"><stop
       offset="0"
       style="stop-color:#589632"
       id="stop13" /><stop
       offset="1"
       style="stop-color:#93B023"
       id="stop15" /></linearGradient><linearGradient
     id="SVGID_3_"
     gradientUnits="userSpaceOnUse"
     x1="553.50677"
     y1="244.6875"
     x2="551.26642"
     y2="97.388199"
     gradientTransform="translate(-110.63499,-98.765)"><stop
       offset="0"
       style="stop-color:#589632"
       id="stop20" /><stop
       offset="1"
       style="stop-color:#93B023"
       id="stop22" /></linearGradient><linearGradient
     id="SVGID_4_"
     gradientUnits="userSpaceOnUse"
     x1="234.4702"
     y1="250.03419"
     x2="232.211"
     y2="101.4977"><stop
       offset="0"
       style="stop-color:#589632"
       id="stop27" /><stop
       offset="1"
       style="stop-color:#93B023"
       id="stop29" /></linearGradient><linearGradient
     id="SVGID_5_"
     gradientUnits="userSpaceOnUse"
     x1="188.7529"
     y1="250.2354"
     x2="186.5125"
     y2="102.9362"><stop
       offset="0"
       style="stop-color:#589632"
       id="stop36" /><stop
       offset="1"
       style="stop-color:#93B023"
       id="stop38" /></linearGradient><rect
     style="fill:#5b9731;fill-opacity:1"
     id="rect4317"
     width="369.27274"
     height="172.30075"
     x="-1.5258791e-05"
     y="0" /><rect
     style="fill:#ffffff;fill-opacity:1"
     id="rect5119"
     width="160.36307"
     height="157.97551"
     x="7.6332192"
     y="7.5709257" /><polygon
     style="fill:#ee7913"
     points="195,180 216.513,180 198.306,162 176,162 176,183.433 195,202.37 "
     id="polygon3"
     transform="translate(-100.20591,-87.198628)" /><polygon
     style="fill:url(#SVGID_4_)"
     points="264,226.946 225.617,189 204,189 204,211.34 240.782,248 264,248 "
     id="polygon31"
     transform="translate(-100.20591,-87.198628)" /><polygon
     style="fill:#f0e64a"
     points="204,189 225.617,189 216.513,180 195,180 195,202.37 204,211.34 "
     id="polygon33"
     transform="translate(-100.20591,-87.198628)" /><path
     inkscape:connector-curvature="0"
     style="fill:url(#linearGradient4331)"
     d="m 97.84609,129.66537 c -3.259,0.75 -6.648,1.157 -10.144,1.157 -25.005,0 -46.271,-20.562 -46.271,-47.221998 0,-26.66 21.032,-46.769 46.271,-46.769 25.239,0 45.336,20.108 45.336,46.769 0,4.336 -0.54,8.508 -1.539,12.46 l 23.144,23.139998 c 5.967,-10.455 9.305,-22.610998 9.305,-35.777998 0,-41.09 -32.791,-71.856 -76.714,-71.856 -43.722,0 -76.511999,30.564 -76.511999,71.856 0,41.493998 32.790999,72.665998 76.511999,72.665998 11.287,0 21.835,-2.076 31.284,-5.854 l -20.672,-20.569 z"
     id="path40" /><path
     d="m 75.79409,74.801372 88,85.999998 0,-21.05469 -38.38281,-37.94531 -9.10352,-8.999998 -18.20703,-18 z"
     id="polygon4174"
     style="fill:#ffffff;fill-opacity:0.17254902"
     inkscape:connector-curvature="0"
     sodipodi:nodetypes="ccccccc" /><flowRoot
     xml:space="preserve"
     id="flowRoot3546"
     style="font-style:normal;font-weight:normal;font-size:40px;line-height:1000%;font-family:sans-serif;letter-spacing:0px;word-spacing:0px;fill:#000000;fill-opacity:1;stroke:none;stroke-width:1px;stroke-linecap:butt;stroke-linejoin:miter;stroke-opacity:1"
     transform="translate(-3.5709357,11.566372)"><flowRegion
       id="flowRegion3548"><rect
         id="rect3550"
         width="118.45854"
         height="130.839"
         x="221.72287"
         y="-6.7825737"
         style="line-height:1000%" /></flowRegion><flowPara
       id="flowPara3552" /><flowPara
       id="flowPara4295" /><flowPara
       id="flowPara4297" /><flowPara
       id="flowPara4299" /><flowPara
       id="flowPara4301" /><flowPara
       id="flowPara4303" /></flowRoot><g
     style="font-style:normal;font-weight:normal;font-size:53.10269928px;line-height:100%;font-family:sans-serif;letter-spacing:0px;word-spacing:0px;fill:#ffffff;fill-opacity:1;stroke:none;stroke-width:1px;stroke-linecap:butt;stroke-linejoin:miter;stroke-opacity:1"
     id="text3538"><path
       d="m 213.70701,45.138577 9.13367,0 0,-14.178421 c 0,-3.876497 2.17721,-6.69094 5.68198,-6.797146 3.02686,0 4.88545,2.071006 4.88545,5.469578 l 0,15.505989 9.18677,0 0,-14.178421 c 0,-3.876497 2.12411,-6.69094 5.57578,-6.797146 3.02686,0 4.93855,2.071006 4.93855,5.469578 l 0,15.505989 9.13367,0 0,-18.054918 c 0,-6.69094 -4.03581,-10.992259 -10.30192,-10.992259 -4.72614,0.0531 -8.23092,2.230313 -10.08952,6.478529 -1.43377,-4.035805 -4.88545,-6.478529 -9.55848,-6.478529 -4.19512,0.0531 -7.48748,1.752389 -9.45228,5.150962 l 0,-4.72614 -9.13367,0 0,28.622355 z"
       style="font-style:normal;font-variant:normal;font-weight:bold;font-stretch:normal;line-height:100%;font-family:Trueno;-inkscape-font-specification:'Trueno Bold';text-align:end;text-anchor:end;fill:#ffffff"
       id="path3379" /><path
       d="m 266.55001,36.589042 c 0,5.257167 3.71718,8.974356 9.82399,8.974356 3.8765,0 6.90336,-1.274465 8.76195,-3.717189 l 0,3.292368 8.97436,0 0,-18.692151 C 294.0572,19.967897 289.49037,16.0914 281.63117,16.0914 c -4.77924,0 -8.81505,1.168259 -13.27567,3.239265 l 2.60203,6.053707 c 3.02685,-1.539978 6.15991,-2.389621 8.54953,-2.389621 3.71719,0 5.57579,1.699286 5.57579,4.513729 l 0,0.424822 -7.54059,0 c -7.11576,0.0531 -10.99225,3.239265 -10.99225,8.65574 z m 8.60263,-0.637232 c 0,-2.124108 1.38067,-3.079957 4.14201,-3.079957 l 5.7882,0 0,2.54893 c -0.58413,2.336518 -3.02686,3.929599 -5.8944,3.929599 -2.54893,0 -4.03581,-1.327567 -4.03581,-3.398572 z"
       style="font-style:normal;font-variant:normal;font-weight:bold;font-stretch:normal;line-height:100%;font-family:Trueno;-inkscape-font-specification:'Trueno Bold';text-align:end;text-anchor:end;fill:#ffffff"
       id="path3381" /><path
       d="m 298.28468,30.694642 c 0,8.868151 5.31027,14.815653 13.38188,14.815653 3.66408,0 6.58473,-1.486875 8.60264,-4.14201 l 0,3.770292 9.18676,0 0,-39.4022034 -9.18676,0 0,14.5501394 c -2.01791,-2.655135 -5.04476,-4.14201 -8.81505,-4.14201 -7.91231,0 -13.16947,5.788194 -13.16947,14.550139 z m 9.18676,0.212411 c 0.0531,-4.407524 2.60204,-7.434378 6.42543,-7.434378 3.8234,0 6.37233,3.026854 6.37233,7.434378 0,4.407524 -2.54893,7.487481 -6.37233,7.487481 -3.82339,0 -6.37232,-3.079957 -6.42543,-7.487481 z"
       style="font-style:normal;font-variant:normal;font-weight:bold;font-stretch:normal;line-height:100%;font-family:Trueno;-inkscape-font-specification:'Trueno Bold';text-align:end;text-anchor:end;fill:#ffffff"
       id="path3383" /><path
       d="m 334.63596,30.907053 c 0,8.708843 5.8413,14.55014 15.18738,14.55014 5.25716,0 9.55848,-1.858595 12.47913,-5.044757 l -4.83235,-4.72614 c -1.91169,1.911697 -4.35442,2.920648 -6.85024,2.920648 -3.39858,0 -5.8413,-1.911697 -6.74405,-5.310269 l 20.12593,0 c 0.63723,-10.461232 -4.35443,-17.09907 -14.44394,-17.09907 -8.86815,0 -14.92186,5.841297 -14.92186,14.709448 z m 9.08056,-2.548929 c 0.58413,-3.451676 2.76135,-5.788195 5.94751,-5.788195 3.29236,0 5.52268,2.283416 5.52268,5.788195 l -11.47019,0 z"
       style="font-style:normal;font-variant:normal;font-weight:bold;font-stretch:normal;line-height:100%;font-family:Trueno;-inkscape-font-specification:'Trueno Bold';text-align:end;text-anchor:end;fill:#ffffff"
       id="path3385" /><path
       d="m 239.64768,69.618921 10.46123,28.622355 9.13367,0 5.62888,-18.161123 5.62889,18.161123 9.08056,0 10.46123,-28.622355 -8.97435,0 -5.7882,19.807307 -5.8944,-19.807307 -8.76194,0 -5.73509,19.807307 -5.8944,-19.807307 -9.34608,0 z"
       style="font-style:normal;font-variant:normal;font-weight:bold;font-stretch:normal;line-height:100%;font-family:Trueno;-inkscape-font-specification:'Trueno Bold';text-align:end;text-anchor:end;fill:#ffffff"
       id="path3387" /><path
       d="m 293.14865,61.388002 c 0,2.867546 2.0179,4.885449 4.83234,4.885449 2.81445,0 4.83235,-2.017903 4.83235,-4.885449 0,-2.814443 -2.0179,-4.832345 -4.83235,-4.832345 -2.81444,0 -4.83234,2.017902 -4.83234,4.832345 z m 0.21241,36.853274 9.13366,0 0,-28.622355 -9.13366,0 0,28.622355 z"
       style="font-style:normal;font-variant:normal;font-weight:bold;font-stretch:normal;line-height:100%;font-family:Trueno;-inkscape-font-specification:'Trueno Bold';text-align:end;text-anchor:end;fill:#ffffff"
       id="path3389" /><path
       d="m 307.1968,76.947093 3.98271,0 0,12.638443 c 0,5.947502 3.9827,9.080561 9.50538,9.080561 2.76134,0 5.57578,-0.743437 7.64679,-1.964799 l -1.80549,-6.372324 c -1.38067,0.584129 -2.60204,0.955848 -3.55788,0.955848 -1.69929,0.0531 -2.65514,-0.902746 -2.65514,-3.133059 l 0,-11.20467 7.48748,0 0,-6.053707 -7.48748,0 0,-7.912303 -9.13366,0 0,7.965405 -3.98271,0 0,6.000605 z"
       style="font-style:normal;font-variant:normal;font-weight:bold;font-stretch:normal;line-height:100%;font-family:Trueno;-inkscape-font-specification:'Trueno Bold';text-align:end;text-anchor:end;fill:#ffffff"
       id="path3391" /><path
       d="m 333.24617,98.241276 9.18676,0 0,-14.125318 c 0,-3.9296 2.23032,-6.797146 5.8413,-6.797146 3.13306,0 5.04476,2.071006 5.04476,5.416476 l 0,15.505988 9.18676,0 0,-18.054918 c 0,-6.69094 -4.14201,-10.992259 -10.46123,-10.992259 -4.24821,0.0531 -7.59368,1.752389 -9.61159,5.150962 l 0,-15.505988 -9.18676,0 0,39.402203 z"
       style="font-style:normal;font-variant:normal;font-weight:bold;font-stretch:normal;line-height:100%;font-family:Trueno;-inkscape-font-specification:'Trueno Bold';text-align:end;text-anchor:end;fill:#ffffff"
       id="path3393" /></g><g
     transform="matrix(0.37564322,0,0,0.37564322,134.84666,73.040001)"
     id="g4242"
     style="fill:#ffffff"><polygon
       style="fill:#ffffff"
       points="198.306,162 176,162 176,183.433 195,202.37 195,180 216.513,180 "
       id="polygon4244" /><path
       style="fill:#ffffff"
       inkscape:connector-curvature="0"
       d="m 414.246,171.135 0,54.35 c -14.951,10.911 -37.782,18.386 -57.38,18.386 -42.833,0 -75.362,-31.113 -75.362,-72.129 0,-40.813 33.135,-71.725 77.182,-71.725 21.013,0 42.427,8.082 56.773,20.608 l -17.982,22.832 c -10.507,-9.698 -25.052,-15.76 -38.791,-15.76 -25.055,0 -44.451,19.194 -44.451,44.045 0,25.053 19.599,44.249 44.651,44.249 8.486,0 18.589,-3.031 27.681,-7.678 l 0,-37.177 27.679,0 z"
       id="path4246" /><path
       style="fill:#ffffff"
       inkscape:connector-curvature="0"
       d="m 442.129,242.456 0,-141.43 31.922,0 0,141.43 -31.922,0 z"
       id="path4248" /><path
       style="fill:#ffffff"
       inkscape:connector-curvature="0"
       d="m 610.831,114.967 -12.324,26.467 c -14.951,-8.89 -32.731,-14.547 -44.045,-14.547 -10.708,0 -17.981,3.839 -17.981,11.517 0,26.064 75.362,11.517 75.16,62.431 0,27.68 -24.045,42.631 -55.36,42.631 -23.236,0 -46.471,-8.89 -62.431,-22.427 l 12.728,-26.063 c 14.548,12.932 35.155,21.215 50.106,21.215 13.134,0 21.013,-4.849 21.013,-13.537 0,-26.669 -75.362,-11.112 -75.362,-61.219 0,-25.659 22.023,-41.823 54.755,-41.823 19.8,-10e-4 39.599,6.061 53.741,15.355 z"
       id="path4250" /><polygon
       style="fill:#ffffff"
       points="204,189 204,211.34 240.782,248 264,248 264,226.946 225.617,189 "
       id="polygon4252" /><path
       style="fill:#ffffff"
       inkscape:connector-curvature="0"
       d="m 198.052,216.864 c -3.259,0.75 -6.648,1.157 -10.144,1.157 -25.005,0 -46.271,-20.562 -46.271,-47.222 0,-26.66 21.032,-46.769 46.271,-46.769 25.239,0 45.336,20.108 45.336,46.769 0,4.336 -0.54,8.508 -1.539,12.46 l 23.144,23.14 c 5.967,-10.455 9.305,-22.611 9.305,-35.778 0,-41.09 -32.791,-71.856 -76.714,-71.856 -43.722,0 -76.512,30.564 -76.512,71.856 0,41.494 32.791,72.666 76.512,72.666 11.287,0 21.835,-2.076 31.284,-5.854 l -20.672,-20.569 z"
       id="path4254" /></g><text
     xml:space="preserve"
     style="font-style:normal;font-weight:normal;font-size:40px;line-height:1000%;font-family:sans-serif;letter-spacing:0px;word-spacing:0px;fill:#000000;fill-opacity:1;stroke:none;stroke-width:1px;stroke-linecap:butt;stroke-linejoin:miter;stroke-opacity:1"
     x="304.80917"
     y="98.684937"
     id="text5208"
     sodipodi:linespacing="1000%"><tspan
       sodipodi:role="line"
       id="tspan5210"
       x="304.80917"
       y="98.684937" /></text>
</svg>